%TF.GenerationSoftware,KiCad,Pcbnew,9.0.2*%
%TF.CreationDate,2025-05-25T16:27:38-07:00*%
%TF.ProjectId,PCB,5043422e-6b69-4636-9164-5f7063625858,rev?*%
%TF.SameCoordinates,Original*%
%TF.FileFunction,Drillmap*%
%TF.FilePolarity,Positive*%
%FSLAX45Y45*%
G04 Gerber Fmt 4.5, Leading zero omitted, Abs format (unit mm)*
G04 Created by KiCad (PCBNEW 9.0.2) date 2025-05-25 16:27:38*
%MOMM*%
%LPD*%
G01*
G04 APERTURE LIST*
%ADD10C,0.050000*%
%ADD11C,0.100000*%
%ADD12C,0.200000*%
G04 APERTURE END LIST*
D10*
X4700000Y-9100000D02*
X4700000Y-4700000D01*
X4700000Y-9100000D02*
X5300000Y-9100000D01*
X9200000Y-9200000D02*
X5300000Y-9200000D01*
X9200000Y-4700000D02*
X9200000Y-9200000D01*
X5300000Y-9200000D02*
X5300000Y-9100000D01*
X4700000Y-4700000D02*
X9200000Y-4700000D01*
D11*
X5200000Y-7750000D02*
G75*
G02*
X5000000Y-7750000I-100000J0D01*
G01*
X5000000Y-7750000D02*
G75*
G02*
X5200000Y-7750000I100000J0D01*
G01*
X6000000Y-6950000D02*
G75*
G02*
X5800000Y-6950000I-100000J0D01*
G01*
X5800000Y-6950000D02*
G75*
G02*
X6000000Y-6950000I100000J0D01*
G01*
X8100000Y-7750000D02*
G75*
G02*
X7900000Y-7750000I-100000J0D01*
G01*
X7900000Y-7750000D02*
G75*
G02*
X8100000Y-7750000I100000J0D01*
G01*
X8900000Y-6950000D02*
G75*
G02*
X8700000Y-6950000I-100000J0D01*
G01*
X8700000Y-6950000D02*
G75*
G02*
X8900000Y-6950000I100000J0D01*
G01*
D12*
D11*
X6362500Y-8317500D02*
X6437500Y-8392500D01*
X6437500Y-8317500D02*
X6362500Y-8392500D01*
X6562500Y-8317500D02*
X6637500Y-8392500D01*
X6637500Y-8317500D02*
X6562500Y-8392500D01*
X7462500Y-8317500D02*
X7537500Y-8392500D01*
X7537500Y-8317500D02*
X7462500Y-8392500D01*
X7662500Y-8317500D02*
X7737500Y-8392500D01*
X7737500Y-8317500D02*
X7662500Y-8392500D01*
X6240000Y-4900000D02*
G75*
G02*
X6160000Y-4900000I-40000J0D01*
G01*
X6160000Y-4900000D02*
G75*
G02*
X6240000Y-4900000I40000J0D01*
G01*
X6240000Y-5154000D02*
G75*
G02*
X6160000Y-5154000I-40000J0D01*
G01*
X6160000Y-5154000D02*
G75*
G02*
X6240000Y-5154000I40000J0D01*
G01*
X6240000Y-5408000D02*
G75*
G02*
X6160000Y-5408000I-40000J0D01*
G01*
X6160000Y-5408000D02*
G75*
G02*
X6240000Y-5408000I40000J0D01*
G01*
X6240000Y-5662000D02*
G75*
G02*
X6160000Y-5662000I-40000J0D01*
G01*
X6160000Y-5662000D02*
G75*
G02*
X6240000Y-5662000I40000J0D01*
G01*
X6240000Y-5916000D02*
G75*
G02*
X6160000Y-5916000I-40000J0D01*
G01*
X6160000Y-5916000D02*
G75*
G02*
X6240000Y-5916000I40000J0D01*
G01*
X6240000Y-6170000D02*
G75*
G02*
X6160000Y-6170000I-40000J0D01*
G01*
X6160000Y-6170000D02*
G75*
G02*
X6240000Y-6170000I40000J0D01*
G01*
X6240000Y-6424000D02*
G75*
G02*
X6160000Y-6424000I-40000J0D01*
G01*
X6160000Y-6424000D02*
G75*
G02*
X6240000Y-6424000I40000J0D01*
G01*
X6240000Y-6678000D02*
G75*
G02*
X6160000Y-6678000I-40000J0D01*
G01*
X6160000Y-6678000D02*
G75*
G02*
X6240000Y-6678000I40000J0D01*
G01*
X6659000Y-7119500D02*
G75*
G02*
X6579000Y-7119500I-40000J0D01*
G01*
X6579000Y-7119500D02*
G75*
G02*
X6659000Y-7119500I40000J0D01*
G01*
X6659000Y-7881500D02*
G75*
G02*
X6579000Y-7881500I-40000J0D01*
G01*
X6579000Y-7881500D02*
G75*
G02*
X6659000Y-7881500I40000J0D01*
G01*
X6913000Y-7119500D02*
G75*
G02*
X6833000Y-7119500I-40000J0D01*
G01*
X6833000Y-7119500D02*
G75*
G02*
X6913000Y-7119500I40000J0D01*
G01*
X6913000Y-7881500D02*
G75*
G02*
X6833000Y-7881500I-40000J0D01*
G01*
X6833000Y-7881500D02*
G75*
G02*
X6913000Y-7881500I40000J0D01*
G01*
X7167000Y-7119500D02*
G75*
G02*
X7087000Y-7119500I-40000J0D01*
G01*
X7087000Y-7119500D02*
G75*
G02*
X7167000Y-7119500I40000J0D01*
G01*
X7167000Y-7881500D02*
G75*
G02*
X7087000Y-7881500I-40000J0D01*
G01*
X7087000Y-7881500D02*
G75*
G02*
X7167000Y-7881500I40000J0D01*
G01*
X7421000Y-7119500D02*
G75*
G02*
X7341000Y-7119500I-40000J0D01*
G01*
X7341000Y-7119500D02*
G75*
G02*
X7421000Y-7119500I40000J0D01*
G01*
X7421000Y-7881500D02*
G75*
G02*
X7341000Y-7881500I-40000J0D01*
G01*
X7341000Y-7881500D02*
G75*
G02*
X7421000Y-7881500I40000J0D01*
G01*
X8043400Y-4900000D02*
G75*
G02*
X7963400Y-4900000I-40000J0D01*
G01*
X7963400Y-4900000D02*
G75*
G02*
X8043400Y-4900000I40000J0D01*
G01*
X8043400Y-5154000D02*
G75*
G02*
X7963400Y-5154000I-40000J0D01*
G01*
X7963400Y-5154000D02*
G75*
G02*
X8043400Y-5154000I40000J0D01*
G01*
X8043400Y-5408000D02*
G75*
G02*
X7963400Y-5408000I-40000J0D01*
G01*
X7963400Y-5408000D02*
G75*
G02*
X8043400Y-5408000I40000J0D01*
G01*
X8043400Y-5662000D02*
G75*
G02*
X7963400Y-5662000I-40000J0D01*
G01*
X7963400Y-5662000D02*
G75*
G02*
X8043400Y-5662000I40000J0D01*
G01*
X8043400Y-5916000D02*
G75*
G02*
X7963400Y-5916000I-40000J0D01*
G01*
X7963400Y-5916000D02*
G75*
G02*
X8043400Y-5916000I40000J0D01*
G01*
X8043400Y-6170000D02*
G75*
G02*
X7963400Y-6170000I-40000J0D01*
G01*
X7963400Y-6170000D02*
G75*
G02*
X8043400Y-6170000I40000J0D01*
G01*
X8043400Y-6424000D02*
G75*
G02*
X7963400Y-6424000I-40000J0D01*
G01*
X7963400Y-6424000D02*
G75*
G02*
X8043400Y-6424000I40000J0D01*
G01*
X8043400Y-6678000D02*
G75*
G02*
X7963400Y-6678000I-40000J0D01*
G01*
X7963400Y-6678000D02*
G75*
G02*
X8043400Y-6678000I40000J0D01*
G01*
D12*
X4958277Y-9513984D02*
X4958277Y-9313984D01*
X4958277Y-9313984D02*
X5005896Y-9313984D01*
X5005896Y-9313984D02*
X5034467Y-9323508D01*
X5034467Y-9323508D02*
X5053515Y-9342555D01*
X5053515Y-9342555D02*
X5063039Y-9361603D01*
X5063039Y-9361603D02*
X5072563Y-9399698D01*
X5072563Y-9399698D02*
X5072563Y-9428270D01*
X5072563Y-9428270D02*
X5063039Y-9466365D01*
X5063039Y-9466365D02*
X5053515Y-9485412D01*
X5053515Y-9485412D02*
X5034467Y-9504460D01*
X5034467Y-9504460D02*
X5005896Y-9513984D01*
X5005896Y-9513984D02*
X4958277Y-9513984D01*
X5158277Y-9513984D02*
X5158277Y-9380650D01*
X5158277Y-9418746D02*
X5167801Y-9399698D01*
X5167801Y-9399698D02*
X5177324Y-9390174D01*
X5177324Y-9390174D02*
X5196372Y-9380650D01*
X5196372Y-9380650D02*
X5215420Y-9380650D01*
X5282086Y-9513984D02*
X5282086Y-9380650D01*
X5282086Y-9313984D02*
X5272563Y-9323508D01*
X5272563Y-9323508D02*
X5282086Y-9333031D01*
X5282086Y-9333031D02*
X5291610Y-9323508D01*
X5291610Y-9323508D02*
X5282086Y-9313984D01*
X5282086Y-9313984D02*
X5282086Y-9333031D01*
X5405896Y-9513984D02*
X5386848Y-9504460D01*
X5386848Y-9504460D02*
X5377324Y-9485412D01*
X5377324Y-9485412D02*
X5377324Y-9313984D01*
X5510658Y-9513984D02*
X5491610Y-9504460D01*
X5491610Y-9504460D02*
X5482086Y-9485412D01*
X5482086Y-9485412D02*
X5482086Y-9313984D01*
X5739229Y-9513984D02*
X5739229Y-9313984D01*
X5739229Y-9313984D02*
X5805896Y-9456841D01*
X5805896Y-9456841D02*
X5872562Y-9313984D01*
X5872562Y-9313984D02*
X5872562Y-9513984D01*
X6053515Y-9513984D02*
X6053515Y-9409222D01*
X6053515Y-9409222D02*
X6043991Y-9390174D01*
X6043991Y-9390174D02*
X6024943Y-9380650D01*
X6024943Y-9380650D02*
X5986848Y-9380650D01*
X5986848Y-9380650D02*
X5967801Y-9390174D01*
X6053515Y-9504460D02*
X6034467Y-9513984D01*
X6034467Y-9513984D02*
X5986848Y-9513984D01*
X5986848Y-9513984D02*
X5967801Y-9504460D01*
X5967801Y-9504460D02*
X5958277Y-9485412D01*
X5958277Y-9485412D02*
X5958277Y-9466365D01*
X5958277Y-9466365D02*
X5967801Y-9447317D01*
X5967801Y-9447317D02*
X5986848Y-9437793D01*
X5986848Y-9437793D02*
X6034467Y-9437793D01*
X6034467Y-9437793D02*
X6053515Y-9428270D01*
X6148753Y-9380650D02*
X6148753Y-9580650D01*
X6148753Y-9390174D02*
X6167801Y-9380650D01*
X6167801Y-9380650D02*
X6205896Y-9380650D01*
X6205896Y-9380650D02*
X6224943Y-9390174D01*
X6224943Y-9390174D02*
X6234467Y-9399698D01*
X6234467Y-9399698D02*
X6243991Y-9418746D01*
X6243991Y-9418746D02*
X6243991Y-9475889D01*
X6243991Y-9475889D02*
X6234467Y-9494936D01*
X6234467Y-9494936D02*
X6224943Y-9504460D01*
X6224943Y-9504460D02*
X6205896Y-9513984D01*
X6205896Y-9513984D02*
X6167801Y-9513984D01*
X6167801Y-9513984D02*
X6148753Y-9504460D01*
X6329705Y-9494936D02*
X6339229Y-9504460D01*
X6339229Y-9504460D02*
X6329705Y-9513984D01*
X6329705Y-9513984D02*
X6320182Y-9504460D01*
X6320182Y-9504460D02*
X6329705Y-9494936D01*
X6329705Y-9494936D02*
X6329705Y-9513984D01*
X6329705Y-9390174D02*
X6339229Y-9399698D01*
X6339229Y-9399698D02*
X6329705Y-9409222D01*
X6329705Y-9409222D02*
X6320182Y-9399698D01*
X6320182Y-9399698D02*
X6329705Y-9390174D01*
X6329705Y-9390174D02*
X6329705Y-9409222D01*
D11*
X4622500Y-9805000D02*
X4697500Y-9880000D01*
X4697500Y-9805000D02*
X4622500Y-9880000D01*
D12*
X4996372Y-9733984D02*
X5015420Y-9733984D01*
X5015420Y-9733984D02*
X5034467Y-9743508D01*
X5034467Y-9743508D02*
X5043991Y-9753031D01*
X5043991Y-9753031D02*
X5053515Y-9772079D01*
X5053515Y-9772079D02*
X5063039Y-9810174D01*
X5063039Y-9810174D02*
X5063039Y-9857793D01*
X5063039Y-9857793D02*
X5053515Y-9895889D01*
X5053515Y-9895889D02*
X5043991Y-9914936D01*
X5043991Y-9914936D02*
X5034467Y-9924460D01*
X5034467Y-9924460D02*
X5015420Y-9933984D01*
X5015420Y-9933984D02*
X4996372Y-9933984D01*
X4996372Y-9933984D02*
X4977324Y-9924460D01*
X4977324Y-9924460D02*
X4967801Y-9914936D01*
X4967801Y-9914936D02*
X4958277Y-9895889D01*
X4958277Y-9895889D02*
X4948753Y-9857793D01*
X4948753Y-9857793D02*
X4948753Y-9810174D01*
X4948753Y-9810174D02*
X4958277Y-9772079D01*
X4958277Y-9772079D02*
X4967801Y-9753031D01*
X4967801Y-9753031D02*
X4977324Y-9743508D01*
X4977324Y-9743508D02*
X4996372Y-9733984D01*
X5148753Y-9914936D02*
X5158277Y-9924460D01*
X5158277Y-9924460D02*
X5148753Y-9933984D01*
X5148753Y-9933984D02*
X5139229Y-9924460D01*
X5139229Y-9924460D02*
X5148753Y-9914936D01*
X5148753Y-9914936D02*
X5148753Y-9933984D01*
X5224944Y-9733984D02*
X5358277Y-9733984D01*
X5358277Y-9733984D02*
X5272563Y-9933984D01*
X5529705Y-9733984D02*
X5434467Y-9733984D01*
X5434467Y-9733984D02*
X5424944Y-9829222D01*
X5424944Y-9829222D02*
X5434467Y-9819698D01*
X5434467Y-9819698D02*
X5453515Y-9810174D01*
X5453515Y-9810174D02*
X5501134Y-9810174D01*
X5501134Y-9810174D02*
X5520182Y-9819698D01*
X5520182Y-9819698D02*
X5529705Y-9829222D01*
X5529705Y-9829222D02*
X5539229Y-9848270D01*
X5539229Y-9848270D02*
X5539229Y-9895889D01*
X5539229Y-9895889D02*
X5529705Y-9914936D01*
X5529705Y-9914936D02*
X5520182Y-9924460D01*
X5520182Y-9924460D02*
X5501134Y-9933984D01*
X5501134Y-9933984D02*
X5453515Y-9933984D01*
X5453515Y-9933984D02*
X5434467Y-9924460D01*
X5434467Y-9924460D02*
X5424944Y-9914936D01*
X5663039Y-9733984D02*
X5682086Y-9733984D01*
X5682086Y-9733984D02*
X5701134Y-9743508D01*
X5701134Y-9743508D02*
X5710658Y-9753031D01*
X5710658Y-9753031D02*
X5720182Y-9772079D01*
X5720182Y-9772079D02*
X5729705Y-9810174D01*
X5729705Y-9810174D02*
X5729705Y-9857793D01*
X5729705Y-9857793D02*
X5720182Y-9895889D01*
X5720182Y-9895889D02*
X5710658Y-9914936D01*
X5710658Y-9914936D02*
X5701134Y-9924460D01*
X5701134Y-9924460D02*
X5682086Y-9933984D01*
X5682086Y-9933984D02*
X5663039Y-9933984D01*
X5663039Y-9933984D02*
X5643991Y-9924460D01*
X5643991Y-9924460D02*
X5634467Y-9914936D01*
X5634467Y-9914936D02*
X5624943Y-9895889D01*
X5624943Y-9895889D02*
X5615420Y-9857793D01*
X5615420Y-9857793D02*
X5615420Y-9810174D01*
X5615420Y-9810174D02*
X5624943Y-9772079D01*
X5624943Y-9772079D02*
X5634467Y-9753031D01*
X5634467Y-9753031D02*
X5643991Y-9743508D01*
X5643991Y-9743508D02*
X5663039Y-9733984D01*
X5815420Y-9933984D02*
X5815420Y-9800650D01*
X5815420Y-9819698D02*
X5824943Y-9810174D01*
X5824943Y-9810174D02*
X5843991Y-9800650D01*
X5843991Y-9800650D02*
X5872563Y-9800650D01*
X5872563Y-9800650D02*
X5891610Y-9810174D01*
X5891610Y-9810174D02*
X5901134Y-9829222D01*
X5901134Y-9829222D02*
X5901134Y-9933984D01*
X5901134Y-9829222D02*
X5910658Y-9810174D01*
X5910658Y-9810174D02*
X5929705Y-9800650D01*
X5929705Y-9800650D02*
X5958277Y-9800650D01*
X5958277Y-9800650D02*
X5977324Y-9810174D01*
X5977324Y-9810174D02*
X5986848Y-9829222D01*
X5986848Y-9829222D02*
X5986848Y-9933984D01*
X6082086Y-9933984D02*
X6082086Y-9800650D01*
X6082086Y-9819698D02*
X6091610Y-9810174D01*
X6091610Y-9810174D02*
X6110658Y-9800650D01*
X6110658Y-9800650D02*
X6139229Y-9800650D01*
X6139229Y-9800650D02*
X6158277Y-9810174D01*
X6158277Y-9810174D02*
X6167801Y-9829222D01*
X6167801Y-9829222D02*
X6167801Y-9933984D01*
X6167801Y-9829222D02*
X6177324Y-9810174D01*
X6177324Y-9810174D02*
X6196372Y-9800650D01*
X6196372Y-9800650D02*
X6224943Y-9800650D01*
X6224943Y-9800650D02*
X6243991Y-9810174D01*
X6243991Y-9810174D02*
X6253515Y-9829222D01*
X6253515Y-9829222D02*
X6253515Y-9933984D01*
X6643991Y-9724460D02*
X6472563Y-9981603D01*
X6901134Y-9733984D02*
X6920182Y-9733984D01*
X6920182Y-9733984D02*
X6939229Y-9743508D01*
X6939229Y-9743508D02*
X6948753Y-9753031D01*
X6948753Y-9753031D02*
X6958277Y-9772079D01*
X6958277Y-9772079D02*
X6967801Y-9810174D01*
X6967801Y-9810174D02*
X6967801Y-9857793D01*
X6967801Y-9857793D02*
X6958277Y-9895889D01*
X6958277Y-9895889D02*
X6948753Y-9914936D01*
X6948753Y-9914936D02*
X6939229Y-9924460D01*
X6939229Y-9924460D02*
X6920182Y-9933984D01*
X6920182Y-9933984D02*
X6901134Y-9933984D01*
X6901134Y-9933984D02*
X6882086Y-9924460D01*
X6882086Y-9924460D02*
X6872563Y-9914936D01*
X6872563Y-9914936D02*
X6863039Y-9895889D01*
X6863039Y-9895889D02*
X6853515Y-9857793D01*
X6853515Y-9857793D02*
X6853515Y-9810174D01*
X6853515Y-9810174D02*
X6863039Y-9772079D01*
X6863039Y-9772079D02*
X6872563Y-9753031D01*
X6872563Y-9753031D02*
X6882086Y-9743508D01*
X6882086Y-9743508D02*
X6901134Y-9733984D01*
X7053515Y-9914936D02*
X7063039Y-9924460D01*
X7063039Y-9924460D02*
X7053515Y-9933984D01*
X7053515Y-9933984D02*
X7043991Y-9924460D01*
X7043991Y-9924460D02*
X7053515Y-9914936D01*
X7053515Y-9914936D02*
X7053515Y-9933984D01*
X7186848Y-9733984D02*
X7205896Y-9733984D01*
X7205896Y-9733984D02*
X7224944Y-9743508D01*
X7224944Y-9743508D02*
X7234467Y-9753031D01*
X7234467Y-9753031D02*
X7243991Y-9772079D01*
X7243991Y-9772079D02*
X7253515Y-9810174D01*
X7253515Y-9810174D02*
X7253515Y-9857793D01*
X7253515Y-9857793D02*
X7243991Y-9895889D01*
X7243991Y-9895889D02*
X7234467Y-9914936D01*
X7234467Y-9914936D02*
X7224944Y-9924460D01*
X7224944Y-9924460D02*
X7205896Y-9933984D01*
X7205896Y-9933984D02*
X7186848Y-9933984D01*
X7186848Y-9933984D02*
X7167801Y-9924460D01*
X7167801Y-9924460D02*
X7158277Y-9914936D01*
X7158277Y-9914936D02*
X7148753Y-9895889D01*
X7148753Y-9895889D02*
X7139229Y-9857793D01*
X7139229Y-9857793D02*
X7139229Y-9810174D01*
X7139229Y-9810174D02*
X7148753Y-9772079D01*
X7148753Y-9772079D02*
X7158277Y-9753031D01*
X7158277Y-9753031D02*
X7167801Y-9743508D01*
X7167801Y-9743508D02*
X7186848Y-9733984D01*
X7329706Y-9753031D02*
X7339229Y-9743508D01*
X7339229Y-9743508D02*
X7358277Y-9733984D01*
X7358277Y-9733984D02*
X7405896Y-9733984D01*
X7405896Y-9733984D02*
X7424944Y-9743508D01*
X7424944Y-9743508D02*
X7434467Y-9753031D01*
X7434467Y-9753031D02*
X7443991Y-9772079D01*
X7443991Y-9772079D02*
X7443991Y-9791127D01*
X7443991Y-9791127D02*
X7434467Y-9819698D01*
X7434467Y-9819698D02*
X7320182Y-9933984D01*
X7320182Y-9933984D02*
X7443991Y-9933984D01*
X7539229Y-9933984D02*
X7577325Y-9933984D01*
X7577325Y-9933984D02*
X7596372Y-9924460D01*
X7596372Y-9924460D02*
X7605896Y-9914936D01*
X7605896Y-9914936D02*
X7624944Y-9886365D01*
X7624944Y-9886365D02*
X7634467Y-9848270D01*
X7634467Y-9848270D02*
X7634467Y-9772079D01*
X7634467Y-9772079D02*
X7624944Y-9753031D01*
X7624944Y-9753031D02*
X7615420Y-9743508D01*
X7615420Y-9743508D02*
X7596372Y-9733984D01*
X7596372Y-9733984D02*
X7558277Y-9733984D01*
X7558277Y-9733984D02*
X7539229Y-9743508D01*
X7539229Y-9743508D02*
X7529706Y-9753031D01*
X7529706Y-9753031D02*
X7520182Y-9772079D01*
X7520182Y-9772079D02*
X7520182Y-9819698D01*
X7520182Y-9819698D02*
X7529706Y-9838746D01*
X7529706Y-9838746D02*
X7539229Y-9848270D01*
X7539229Y-9848270D02*
X7558277Y-9857793D01*
X7558277Y-9857793D02*
X7596372Y-9857793D01*
X7596372Y-9857793D02*
X7615420Y-9848270D01*
X7615420Y-9848270D02*
X7624944Y-9838746D01*
X7624944Y-9838746D02*
X7634467Y-9819698D01*
X7815420Y-9733984D02*
X7720182Y-9733984D01*
X7720182Y-9733984D02*
X7710658Y-9829222D01*
X7710658Y-9829222D02*
X7720182Y-9819698D01*
X7720182Y-9819698D02*
X7739229Y-9810174D01*
X7739229Y-9810174D02*
X7786848Y-9810174D01*
X7786848Y-9810174D02*
X7805896Y-9819698D01*
X7805896Y-9819698D02*
X7815420Y-9829222D01*
X7815420Y-9829222D02*
X7824944Y-9848270D01*
X7824944Y-9848270D02*
X7824944Y-9895889D01*
X7824944Y-9895889D02*
X7815420Y-9914936D01*
X7815420Y-9914936D02*
X7805896Y-9924460D01*
X7805896Y-9924460D02*
X7786848Y-9933984D01*
X7786848Y-9933984D02*
X7739229Y-9933984D01*
X7739229Y-9933984D02*
X7720182Y-9924460D01*
X7720182Y-9924460D02*
X7710658Y-9914936D01*
X7901134Y-9733984D02*
X7901134Y-9772079D01*
X7977325Y-9733984D02*
X7977325Y-9772079D01*
X8272563Y-10010174D02*
X8263039Y-10000650D01*
X8263039Y-10000650D02*
X8243991Y-9972079D01*
X8243991Y-9972079D02*
X8234468Y-9953031D01*
X8234468Y-9953031D02*
X8224944Y-9924460D01*
X8224944Y-9924460D02*
X8215420Y-9876841D01*
X8215420Y-9876841D02*
X8215420Y-9838746D01*
X8215420Y-9838746D02*
X8224944Y-9791127D01*
X8224944Y-9791127D02*
X8234468Y-9762555D01*
X8234468Y-9762555D02*
X8243991Y-9743508D01*
X8243991Y-9743508D02*
X8263039Y-9714936D01*
X8263039Y-9714936D02*
X8272563Y-9705412D01*
X8434468Y-9800650D02*
X8434468Y-9933984D01*
X8386848Y-9724460D02*
X8339229Y-9867317D01*
X8339229Y-9867317D02*
X8463039Y-9867317D01*
X8691611Y-9933984D02*
X8691611Y-9733984D01*
X8777325Y-9933984D02*
X8777325Y-9829222D01*
X8777325Y-9829222D02*
X8767801Y-9810174D01*
X8767801Y-9810174D02*
X8748753Y-9800650D01*
X8748753Y-9800650D02*
X8720182Y-9800650D01*
X8720182Y-9800650D02*
X8701134Y-9810174D01*
X8701134Y-9810174D02*
X8691611Y-9819698D01*
X8901134Y-9933984D02*
X8882087Y-9924460D01*
X8882087Y-9924460D02*
X8872563Y-9914936D01*
X8872563Y-9914936D02*
X8863039Y-9895889D01*
X8863039Y-9895889D02*
X8863039Y-9838746D01*
X8863039Y-9838746D02*
X8872563Y-9819698D01*
X8872563Y-9819698D02*
X8882087Y-9810174D01*
X8882087Y-9810174D02*
X8901134Y-9800650D01*
X8901134Y-9800650D02*
X8929706Y-9800650D01*
X8929706Y-9800650D02*
X8948753Y-9810174D01*
X8948753Y-9810174D02*
X8958277Y-9819698D01*
X8958277Y-9819698D02*
X8967801Y-9838746D01*
X8967801Y-9838746D02*
X8967801Y-9895889D01*
X8967801Y-9895889D02*
X8958277Y-9914936D01*
X8958277Y-9914936D02*
X8948753Y-9924460D01*
X8948753Y-9924460D02*
X8929706Y-9933984D01*
X8929706Y-9933984D02*
X8901134Y-9933984D01*
X9082087Y-9933984D02*
X9063039Y-9924460D01*
X9063039Y-9924460D02*
X9053515Y-9905412D01*
X9053515Y-9905412D02*
X9053515Y-9733984D01*
X9234468Y-9924460D02*
X9215420Y-9933984D01*
X9215420Y-9933984D02*
X9177325Y-9933984D01*
X9177325Y-9933984D02*
X9158277Y-9924460D01*
X9158277Y-9924460D02*
X9148753Y-9905412D01*
X9148753Y-9905412D02*
X9148753Y-9829222D01*
X9148753Y-9829222D02*
X9158277Y-9810174D01*
X9158277Y-9810174D02*
X9177325Y-9800650D01*
X9177325Y-9800650D02*
X9215420Y-9800650D01*
X9215420Y-9800650D02*
X9234468Y-9810174D01*
X9234468Y-9810174D02*
X9243992Y-9829222D01*
X9243992Y-9829222D02*
X9243992Y-9848270D01*
X9243992Y-9848270D02*
X9148753Y-9867317D01*
X9320182Y-9924460D02*
X9339230Y-9933984D01*
X9339230Y-9933984D02*
X9377325Y-9933984D01*
X9377325Y-9933984D02*
X9396373Y-9924460D01*
X9396373Y-9924460D02*
X9405896Y-9905412D01*
X9405896Y-9905412D02*
X9405896Y-9895889D01*
X9405896Y-9895889D02*
X9396373Y-9876841D01*
X9396373Y-9876841D02*
X9377325Y-9867317D01*
X9377325Y-9867317D02*
X9348753Y-9867317D01*
X9348753Y-9867317D02*
X9329706Y-9857793D01*
X9329706Y-9857793D02*
X9320182Y-9838746D01*
X9320182Y-9838746D02*
X9320182Y-9829222D01*
X9320182Y-9829222D02*
X9329706Y-9810174D01*
X9329706Y-9810174D02*
X9348753Y-9800650D01*
X9348753Y-9800650D02*
X9377325Y-9800650D01*
X9377325Y-9800650D02*
X9396373Y-9810174D01*
X9472563Y-10010174D02*
X9482087Y-10000650D01*
X9482087Y-10000650D02*
X9501134Y-9972079D01*
X9501134Y-9972079D02*
X9510658Y-9953031D01*
X9510658Y-9953031D02*
X9520182Y-9924460D01*
X9520182Y-9924460D02*
X9529706Y-9876841D01*
X9529706Y-9876841D02*
X9529706Y-9838746D01*
X9529706Y-9838746D02*
X9520182Y-9791127D01*
X9520182Y-9791127D02*
X9510658Y-9762555D01*
X9510658Y-9762555D02*
X9501134Y-9743508D01*
X9501134Y-9743508D02*
X9482087Y-9714936D01*
X9482087Y-9714936D02*
X9472563Y-9705412D01*
D11*
X4697500Y-10106500D02*
G75*
G02*
X4617500Y-10106500I-40000J0D01*
G01*
X4617500Y-10106500D02*
G75*
G02*
X4697500Y-10106500I40000J0D01*
G01*
D12*
X4996372Y-9997984D02*
X5015420Y-9997984D01*
X5015420Y-9997984D02*
X5034467Y-10007508D01*
X5034467Y-10007508D02*
X5043991Y-10017031D01*
X5043991Y-10017031D02*
X5053515Y-10036079D01*
X5053515Y-10036079D02*
X5063039Y-10074174D01*
X5063039Y-10074174D02*
X5063039Y-10121793D01*
X5063039Y-10121793D02*
X5053515Y-10159889D01*
X5053515Y-10159889D02*
X5043991Y-10178936D01*
X5043991Y-10178936D02*
X5034467Y-10188460D01*
X5034467Y-10188460D02*
X5015420Y-10197984D01*
X5015420Y-10197984D02*
X4996372Y-10197984D01*
X4996372Y-10197984D02*
X4977324Y-10188460D01*
X4977324Y-10188460D02*
X4967801Y-10178936D01*
X4967801Y-10178936D02*
X4958277Y-10159889D01*
X4958277Y-10159889D02*
X4948753Y-10121793D01*
X4948753Y-10121793D02*
X4948753Y-10074174D01*
X4948753Y-10074174D02*
X4958277Y-10036079D01*
X4958277Y-10036079D02*
X4967801Y-10017031D01*
X4967801Y-10017031D02*
X4977324Y-10007508D01*
X4977324Y-10007508D02*
X4996372Y-9997984D01*
X5148753Y-10178936D02*
X5158277Y-10188460D01*
X5158277Y-10188460D02*
X5148753Y-10197984D01*
X5148753Y-10197984D02*
X5139229Y-10188460D01*
X5139229Y-10188460D02*
X5148753Y-10178936D01*
X5148753Y-10178936D02*
X5148753Y-10197984D01*
X5272563Y-10083698D02*
X5253515Y-10074174D01*
X5253515Y-10074174D02*
X5243991Y-10064650D01*
X5243991Y-10064650D02*
X5234467Y-10045603D01*
X5234467Y-10045603D02*
X5234467Y-10036079D01*
X5234467Y-10036079D02*
X5243991Y-10017031D01*
X5243991Y-10017031D02*
X5253515Y-10007508D01*
X5253515Y-10007508D02*
X5272563Y-9997984D01*
X5272563Y-9997984D02*
X5310658Y-9997984D01*
X5310658Y-9997984D02*
X5329705Y-10007508D01*
X5329705Y-10007508D02*
X5339229Y-10017031D01*
X5339229Y-10017031D02*
X5348753Y-10036079D01*
X5348753Y-10036079D02*
X5348753Y-10045603D01*
X5348753Y-10045603D02*
X5339229Y-10064650D01*
X5339229Y-10064650D02*
X5329705Y-10074174D01*
X5329705Y-10074174D02*
X5310658Y-10083698D01*
X5310658Y-10083698D02*
X5272563Y-10083698D01*
X5272563Y-10083698D02*
X5253515Y-10093222D01*
X5253515Y-10093222D02*
X5243991Y-10102746D01*
X5243991Y-10102746D02*
X5234467Y-10121793D01*
X5234467Y-10121793D02*
X5234467Y-10159889D01*
X5234467Y-10159889D02*
X5243991Y-10178936D01*
X5243991Y-10178936D02*
X5253515Y-10188460D01*
X5253515Y-10188460D02*
X5272563Y-10197984D01*
X5272563Y-10197984D02*
X5310658Y-10197984D01*
X5310658Y-10197984D02*
X5329705Y-10188460D01*
X5329705Y-10188460D02*
X5339229Y-10178936D01*
X5339229Y-10178936D02*
X5348753Y-10159889D01*
X5348753Y-10159889D02*
X5348753Y-10121793D01*
X5348753Y-10121793D02*
X5339229Y-10102746D01*
X5339229Y-10102746D02*
X5329705Y-10093222D01*
X5329705Y-10093222D02*
X5310658Y-10083698D01*
X5472563Y-9997984D02*
X5491610Y-9997984D01*
X5491610Y-9997984D02*
X5510658Y-10007508D01*
X5510658Y-10007508D02*
X5520182Y-10017031D01*
X5520182Y-10017031D02*
X5529705Y-10036079D01*
X5529705Y-10036079D02*
X5539229Y-10074174D01*
X5539229Y-10074174D02*
X5539229Y-10121793D01*
X5539229Y-10121793D02*
X5529705Y-10159889D01*
X5529705Y-10159889D02*
X5520182Y-10178936D01*
X5520182Y-10178936D02*
X5510658Y-10188460D01*
X5510658Y-10188460D02*
X5491610Y-10197984D01*
X5491610Y-10197984D02*
X5472563Y-10197984D01*
X5472563Y-10197984D02*
X5453515Y-10188460D01*
X5453515Y-10188460D02*
X5443991Y-10178936D01*
X5443991Y-10178936D02*
X5434467Y-10159889D01*
X5434467Y-10159889D02*
X5424944Y-10121793D01*
X5424944Y-10121793D02*
X5424944Y-10074174D01*
X5424944Y-10074174D02*
X5434467Y-10036079D01*
X5434467Y-10036079D02*
X5443991Y-10017031D01*
X5443991Y-10017031D02*
X5453515Y-10007508D01*
X5453515Y-10007508D02*
X5472563Y-9997984D01*
X5663039Y-9997984D02*
X5682086Y-9997984D01*
X5682086Y-9997984D02*
X5701134Y-10007508D01*
X5701134Y-10007508D02*
X5710658Y-10017031D01*
X5710658Y-10017031D02*
X5720182Y-10036079D01*
X5720182Y-10036079D02*
X5729705Y-10074174D01*
X5729705Y-10074174D02*
X5729705Y-10121793D01*
X5729705Y-10121793D02*
X5720182Y-10159889D01*
X5720182Y-10159889D02*
X5710658Y-10178936D01*
X5710658Y-10178936D02*
X5701134Y-10188460D01*
X5701134Y-10188460D02*
X5682086Y-10197984D01*
X5682086Y-10197984D02*
X5663039Y-10197984D01*
X5663039Y-10197984D02*
X5643991Y-10188460D01*
X5643991Y-10188460D02*
X5634467Y-10178936D01*
X5634467Y-10178936D02*
X5624943Y-10159889D01*
X5624943Y-10159889D02*
X5615420Y-10121793D01*
X5615420Y-10121793D02*
X5615420Y-10074174D01*
X5615420Y-10074174D02*
X5624943Y-10036079D01*
X5624943Y-10036079D02*
X5634467Y-10017031D01*
X5634467Y-10017031D02*
X5643991Y-10007508D01*
X5643991Y-10007508D02*
X5663039Y-9997984D01*
X5815420Y-10197984D02*
X5815420Y-10064650D01*
X5815420Y-10083698D02*
X5824943Y-10074174D01*
X5824943Y-10074174D02*
X5843991Y-10064650D01*
X5843991Y-10064650D02*
X5872563Y-10064650D01*
X5872563Y-10064650D02*
X5891610Y-10074174D01*
X5891610Y-10074174D02*
X5901134Y-10093222D01*
X5901134Y-10093222D02*
X5901134Y-10197984D01*
X5901134Y-10093222D02*
X5910658Y-10074174D01*
X5910658Y-10074174D02*
X5929705Y-10064650D01*
X5929705Y-10064650D02*
X5958277Y-10064650D01*
X5958277Y-10064650D02*
X5977324Y-10074174D01*
X5977324Y-10074174D02*
X5986848Y-10093222D01*
X5986848Y-10093222D02*
X5986848Y-10197984D01*
X6082086Y-10197984D02*
X6082086Y-10064650D01*
X6082086Y-10083698D02*
X6091610Y-10074174D01*
X6091610Y-10074174D02*
X6110658Y-10064650D01*
X6110658Y-10064650D02*
X6139229Y-10064650D01*
X6139229Y-10064650D02*
X6158277Y-10074174D01*
X6158277Y-10074174D02*
X6167801Y-10093222D01*
X6167801Y-10093222D02*
X6167801Y-10197984D01*
X6167801Y-10093222D02*
X6177324Y-10074174D01*
X6177324Y-10074174D02*
X6196372Y-10064650D01*
X6196372Y-10064650D02*
X6224943Y-10064650D01*
X6224943Y-10064650D02*
X6243991Y-10074174D01*
X6243991Y-10074174D02*
X6253515Y-10093222D01*
X6253515Y-10093222D02*
X6253515Y-10197984D01*
X6643991Y-9988460D02*
X6472563Y-10245603D01*
X6901134Y-9997984D02*
X6920182Y-9997984D01*
X6920182Y-9997984D02*
X6939229Y-10007508D01*
X6939229Y-10007508D02*
X6948753Y-10017031D01*
X6948753Y-10017031D02*
X6958277Y-10036079D01*
X6958277Y-10036079D02*
X6967801Y-10074174D01*
X6967801Y-10074174D02*
X6967801Y-10121793D01*
X6967801Y-10121793D02*
X6958277Y-10159889D01*
X6958277Y-10159889D02*
X6948753Y-10178936D01*
X6948753Y-10178936D02*
X6939229Y-10188460D01*
X6939229Y-10188460D02*
X6920182Y-10197984D01*
X6920182Y-10197984D02*
X6901134Y-10197984D01*
X6901134Y-10197984D02*
X6882086Y-10188460D01*
X6882086Y-10188460D02*
X6872563Y-10178936D01*
X6872563Y-10178936D02*
X6863039Y-10159889D01*
X6863039Y-10159889D02*
X6853515Y-10121793D01*
X6853515Y-10121793D02*
X6853515Y-10074174D01*
X6853515Y-10074174D02*
X6863039Y-10036079D01*
X6863039Y-10036079D02*
X6872563Y-10017031D01*
X6872563Y-10017031D02*
X6882086Y-10007508D01*
X6882086Y-10007508D02*
X6901134Y-9997984D01*
X7053515Y-10178936D02*
X7063039Y-10188460D01*
X7063039Y-10188460D02*
X7053515Y-10197984D01*
X7053515Y-10197984D02*
X7043991Y-10188460D01*
X7043991Y-10188460D02*
X7053515Y-10178936D01*
X7053515Y-10178936D02*
X7053515Y-10197984D01*
X7186848Y-9997984D02*
X7205896Y-9997984D01*
X7205896Y-9997984D02*
X7224944Y-10007508D01*
X7224944Y-10007508D02*
X7234467Y-10017031D01*
X7234467Y-10017031D02*
X7243991Y-10036079D01*
X7243991Y-10036079D02*
X7253515Y-10074174D01*
X7253515Y-10074174D02*
X7253515Y-10121793D01*
X7253515Y-10121793D02*
X7243991Y-10159889D01*
X7243991Y-10159889D02*
X7234467Y-10178936D01*
X7234467Y-10178936D02*
X7224944Y-10188460D01*
X7224944Y-10188460D02*
X7205896Y-10197984D01*
X7205896Y-10197984D02*
X7186848Y-10197984D01*
X7186848Y-10197984D02*
X7167801Y-10188460D01*
X7167801Y-10188460D02*
X7158277Y-10178936D01*
X7158277Y-10178936D02*
X7148753Y-10159889D01*
X7148753Y-10159889D02*
X7139229Y-10121793D01*
X7139229Y-10121793D02*
X7139229Y-10074174D01*
X7139229Y-10074174D02*
X7148753Y-10036079D01*
X7148753Y-10036079D02*
X7158277Y-10017031D01*
X7158277Y-10017031D02*
X7167801Y-10007508D01*
X7167801Y-10007508D02*
X7186848Y-9997984D01*
X7320182Y-9997984D02*
X7443991Y-9997984D01*
X7443991Y-9997984D02*
X7377325Y-10074174D01*
X7377325Y-10074174D02*
X7405896Y-10074174D01*
X7405896Y-10074174D02*
X7424944Y-10083698D01*
X7424944Y-10083698D02*
X7434467Y-10093222D01*
X7434467Y-10093222D02*
X7443991Y-10112270D01*
X7443991Y-10112270D02*
X7443991Y-10159889D01*
X7443991Y-10159889D02*
X7434467Y-10178936D01*
X7434467Y-10178936D02*
X7424944Y-10188460D01*
X7424944Y-10188460D02*
X7405896Y-10197984D01*
X7405896Y-10197984D02*
X7348753Y-10197984D01*
X7348753Y-10197984D02*
X7329706Y-10188460D01*
X7329706Y-10188460D02*
X7320182Y-10178936D01*
X7634467Y-10197984D02*
X7520182Y-10197984D01*
X7577325Y-10197984D02*
X7577325Y-9997984D01*
X7577325Y-9997984D02*
X7558277Y-10026555D01*
X7558277Y-10026555D02*
X7539229Y-10045603D01*
X7539229Y-10045603D02*
X7520182Y-10055127D01*
X7815420Y-9997984D02*
X7720182Y-9997984D01*
X7720182Y-9997984D02*
X7710658Y-10093222D01*
X7710658Y-10093222D02*
X7720182Y-10083698D01*
X7720182Y-10083698D02*
X7739229Y-10074174D01*
X7739229Y-10074174D02*
X7786848Y-10074174D01*
X7786848Y-10074174D02*
X7805896Y-10083698D01*
X7805896Y-10083698D02*
X7815420Y-10093222D01*
X7815420Y-10093222D02*
X7824944Y-10112270D01*
X7824944Y-10112270D02*
X7824944Y-10159889D01*
X7824944Y-10159889D02*
X7815420Y-10178936D01*
X7815420Y-10178936D02*
X7805896Y-10188460D01*
X7805896Y-10188460D02*
X7786848Y-10197984D01*
X7786848Y-10197984D02*
X7739229Y-10197984D01*
X7739229Y-10197984D02*
X7720182Y-10188460D01*
X7720182Y-10188460D02*
X7710658Y-10178936D01*
X7901134Y-9997984D02*
X7901134Y-10036079D01*
X7977325Y-9997984D02*
X7977325Y-10036079D01*
X8272563Y-10274174D02*
X8263039Y-10264650D01*
X8263039Y-10264650D02*
X8243991Y-10236079D01*
X8243991Y-10236079D02*
X8234468Y-10217031D01*
X8234468Y-10217031D02*
X8224944Y-10188460D01*
X8224944Y-10188460D02*
X8215420Y-10140841D01*
X8215420Y-10140841D02*
X8215420Y-10102746D01*
X8215420Y-10102746D02*
X8224944Y-10055127D01*
X8224944Y-10055127D02*
X8234468Y-10026555D01*
X8234468Y-10026555D02*
X8243991Y-10007508D01*
X8243991Y-10007508D02*
X8263039Y-9978936D01*
X8263039Y-9978936D02*
X8272563Y-9969412D01*
X8339229Y-10017031D02*
X8348753Y-10007508D01*
X8348753Y-10007508D02*
X8367801Y-9997984D01*
X8367801Y-9997984D02*
X8415420Y-9997984D01*
X8415420Y-9997984D02*
X8434468Y-10007508D01*
X8434468Y-10007508D02*
X8443991Y-10017031D01*
X8443991Y-10017031D02*
X8453515Y-10036079D01*
X8453515Y-10036079D02*
X8453515Y-10055127D01*
X8453515Y-10055127D02*
X8443991Y-10083698D01*
X8443991Y-10083698D02*
X8329706Y-10197984D01*
X8329706Y-10197984D02*
X8453515Y-10197984D01*
X8624944Y-10064650D02*
X8624944Y-10197984D01*
X8577325Y-9988460D02*
X8529706Y-10131317D01*
X8529706Y-10131317D02*
X8653515Y-10131317D01*
X8882087Y-10197984D02*
X8882087Y-9997984D01*
X8967801Y-10197984D02*
X8967801Y-10093222D01*
X8967801Y-10093222D02*
X8958277Y-10074174D01*
X8958277Y-10074174D02*
X8939230Y-10064650D01*
X8939230Y-10064650D02*
X8910658Y-10064650D01*
X8910658Y-10064650D02*
X8891611Y-10074174D01*
X8891611Y-10074174D02*
X8882087Y-10083698D01*
X9091611Y-10197984D02*
X9072563Y-10188460D01*
X9072563Y-10188460D02*
X9063039Y-10178936D01*
X9063039Y-10178936D02*
X9053515Y-10159889D01*
X9053515Y-10159889D02*
X9053515Y-10102746D01*
X9053515Y-10102746D02*
X9063039Y-10083698D01*
X9063039Y-10083698D02*
X9072563Y-10074174D01*
X9072563Y-10074174D02*
X9091611Y-10064650D01*
X9091611Y-10064650D02*
X9120182Y-10064650D01*
X9120182Y-10064650D02*
X9139230Y-10074174D01*
X9139230Y-10074174D02*
X9148753Y-10083698D01*
X9148753Y-10083698D02*
X9158277Y-10102746D01*
X9158277Y-10102746D02*
X9158277Y-10159889D01*
X9158277Y-10159889D02*
X9148753Y-10178936D01*
X9148753Y-10178936D02*
X9139230Y-10188460D01*
X9139230Y-10188460D02*
X9120182Y-10197984D01*
X9120182Y-10197984D02*
X9091611Y-10197984D01*
X9272563Y-10197984D02*
X9253515Y-10188460D01*
X9253515Y-10188460D02*
X9243992Y-10169412D01*
X9243992Y-10169412D02*
X9243992Y-9997984D01*
X9424944Y-10188460D02*
X9405896Y-10197984D01*
X9405896Y-10197984D02*
X9367801Y-10197984D01*
X9367801Y-10197984D02*
X9348753Y-10188460D01*
X9348753Y-10188460D02*
X9339230Y-10169412D01*
X9339230Y-10169412D02*
X9339230Y-10093222D01*
X9339230Y-10093222D02*
X9348753Y-10074174D01*
X9348753Y-10074174D02*
X9367801Y-10064650D01*
X9367801Y-10064650D02*
X9405896Y-10064650D01*
X9405896Y-10064650D02*
X9424944Y-10074174D01*
X9424944Y-10074174D02*
X9434468Y-10093222D01*
X9434468Y-10093222D02*
X9434468Y-10112270D01*
X9434468Y-10112270D02*
X9339230Y-10131317D01*
X9510658Y-10188460D02*
X9529706Y-10197984D01*
X9529706Y-10197984D02*
X9567801Y-10197984D01*
X9567801Y-10197984D02*
X9586849Y-10188460D01*
X9586849Y-10188460D02*
X9596373Y-10169412D01*
X9596373Y-10169412D02*
X9596373Y-10159889D01*
X9596373Y-10159889D02*
X9586849Y-10140841D01*
X9586849Y-10140841D02*
X9567801Y-10131317D01*
X9567801Y-10131317D02*
X9539230Y-10131317D01*
X9539230Y-10131317D02*
X9520182Y-10121793D01*
X9520182Y-10121793D02*
X9510658Y-10102746D01*
X9510658Y-10102746D02*
X9510658Y-10093222D01*
X9510658Y-10093222D02*
X9520182Y-10074174D01*
X9520182Y-10074174D02*
X9539230Y-10064650D01*
X9539230Y-10064650D02*
X9567801Y-10064650D01*
X9567801Y-10064650D02*
X9586849Y-10074174D01*
X9663039Y-10274174D02*
X9672563Y-10264650D01*
X9672563Y-10264650D02*
X9691611Y-10236079D01*
X9691611Y-10236079D02*
X9701134Y-10217031D01*
X9701134Y-10217031D02*
X9710658Y-10188460D01*
X9710658Y-10188460D02*
X9720182Y-10140841D01*
X9720182Y-10140841D02*
X9720182Y-10102746D01*
X9720182Y-10102746D02*
X9710658Y-10055127D01*
X9710658Y-10055127D02*
X9701134Y-10026555D01*
X9701134Y-10026555D02*
X9691611Y-10007508D01*
X9691611Y-10007508D02*
X9672563Y-9978936D01*
X9672563Y-9978936D02*
X9663039Y-9969412D01*
M02*
