%TF.GenerationSoftware,KiCad,Pcbnew,9.0.2*%
%TF.CreationDate,2025-05-25T16:27:06-07:00*%
%TF.ProjectId,PCB,5043422e-6b69-4636-9164-5f7063625858,rev?*%
%TF.SameCoordinates,Original*%
%TF.FileFunction,Copper,L2,Bot*%
%TF.FilePolarity,Positive*%
%FSLAX46Y46*%
G04 Gerber Fmt 4.6, Leading zero omitted, Abs format (unit mm)*
G04 Created by KiCad (PCBNEW 9.0.2) date 2025-05-25 16:27:06*
%MOMM*%
%LPD*%
G01*
G04 APERTURE LIST*
G04 Aperture macros list*
%AMRoundRect*
0 Rectangle with rounded corners*
0 $1 Rounding radius*
0 $2 $3 $4 $5 $6 $7 $8 $9 X,Y pos of 4 corners*
0 Add a 4 corners polygon primitive as box body*
4,1,4,$2,$3,$4,$5,$6,$7,$8,$9,$2,$3,0*
0 Add four circle primitives for the rounded corners*
1,1,$1+$1,$2,$3*
1,1,$1+$1,$4,$5*
1,1,$1+$1,$6,$7*
1,1,$1+$1,$8,$9*
0 Add four rect primitives between the rounded corners*
20,1,$1+$1,$2,$3,$4,$5,0*
20,1,$1+$1,$4,$5,$6,$7,0*
20,1,$1+$1,$6,$7,$8,$9,0*
20,1,$1+$1,$8,$9,$2,$3,0*%
G04 Aperture macros list end*
%TA.AperFunction,ComponentPad*%
%ADD10R,1.308000X1.308000*%
%TD*%
%TA.AperFunction,ComponentPad*%
%ADD11C,1.308000*%
%TD*%
%TA.AperFunction,ComponentPad*%
%ADD12RoundRect,0.250000X-0.550000X0.550000X-0.550000X-0.550000X0.550000X-0.550000X0.550000X0.550000X0*%
%TD*%
%TA.AperFunction,ComponentPad*%
%ADD13C,1.600000*%
%TD*%
%TA.AperFunction,ComponentPad*%
%ADD14RoundRect,0.250000X0.350000X0.625000X-0.350000X0.625000X-0.350000X-0.625000X0.350000X-0.625000X0*%
%TD*%
%TA.AperFunction,ComponentPad*%
%ADD15O,1.200000X1.750000*%
%TD*%
%TA.AperFunction,Conductor*%
%ADD16C,0.200000*%
%TD*%
G04 APERTURE END LIST*
D10*
%TO.P,U2,1,VCC*%
%TO.N,/VDD*%
X80034000Y-49000000D03*
D11*
%TO.P,U2,2,RX*%
%TO.N,Net-(U1-PB1)*%
X80034000Y-51540000D03*
%TO.P,U2,3,TX*%
%TO.N,Net-(U2-TX)*%
X80034000Y-54080000D03*
%TO.P,U2,4,DAC_R*%
%TO.N,unconnected-(U2-DAC_R-Pad4)*%
X80034000Y-56620000D03*
%TO.P,U2,5,DAC_L*%
%TO.N,unconnected-(U2-DAC_L-Pad5)*%
X80034000Y-59160000D03*
%TO.P,U2,6,SPK1*%
%TO.N,Net-(SPK1-Pin_1)*%
X80034000Y-61700000D03*
%TO.P,U2,7,GND*%
%TO.N,/GND*%
X80034000Y-64240000D03*
%TO.P,U2,8,SPK2*%
%TO.N,Net-(SPK1-Pin_2)*%
X80034000Y-66780000D03*
%TO.P,U2,9,IO1*%
%TO.N,unconnected-(U2-IO1-Pad9)*%
X62000000Y-66780000D03*
%TO.P,U2,10,GND__1*%
%TO.N,/GND*%
X62000000Y-64240000D03*
%TO.P,U2,11,IO2*%
%TO.N,unconnected-(U2-IO2-Pad11)*%
X62000000Y-61700000D03*
%TO.P,U2,12,ADKEY1*%
%TO.N,unconnected-(U2-ADKEY1-Pad12)*%
X62000000Y-59160000D03*
%TO.P,U2,13,ADKEY2*%
%TO.N,unconnected-(U2-ADKEY2-Pad13)*%
X62000000Y-56620000D03*
%TO.P,U2,14,USB+*%
%TO.N,unconnected-(U2-USB+-Pad14)*%
X62000000Y-54080000D03*
%TO.P,U2,15,USB-*%
%TO.N,unconnected-(U2-USB--Pad15)*%
X62000000Y-51540000D03*
%TO.P,U2,16,BUSY*%
%TO.N,unconnected-(U2-BUSY-Pad16)*%
X62000000Y-49000000D03*
%TD*%
D12*
%TO.P,U1,1,~{RESET}/PB5*%
%TO.N,Net-(U1-~{RESET}{slash}PB5)*%
X66190000Y-71195000D03*
D13*
%TO.P,U1,2,XTAL1/PB3*%
%TO.N,Net-(U1-XTAL1{slash}PB3)*%
X68730000Y-71195000D03*
%TO.P,U1,3,XTAL2/PB4*%
%TO.N,Net-(U1-XTAL2{slash}PB4)*%
X71270000Y-71195000D03*
%TO.P,U1,4,GND*%
%TO.N,/GND*%
X73810000Y-71195000D03*
%TO.P,U1,5,AREF/PB0*%
%TO.N,Net-(U1-AREF{slash}PB0)*%
X73810000Y-78815000D03*
%TO.P,U1,6,PB1*%
%TO.N,Net-(U1-PB1)*%
X71270000Y-78815000D03*
%TO.P,U1,7,PB2*%
%TO.N,unconnected-(U1-PB2-Pad7)*%
X68730000Y-78815000D03*
%TO.P,U1,8,VCC*%
%TO.N,/VDD*%
X66190000Y-78815000D03*
%TD*%
D14*
%TO.P,SPK1,1,Pin_1*%
%TO.N,Net-(SPK1-Pin_1)*%
X77000000Y-83550000D03*
D15*
%TO.P,SPK1,2,Pin_2*%
%TO.N,Net-(SPK1-Pin_2)*%
X75000000Y-83550000D03*
%TD*%
D14*
%TO.P,BAT1,1,Pin_1*%
%TO.N,/VDD*%
X66000000Y-83550000D03*
D15*
%TO.P,BAT1,2,Pin_2*%
%TO.N,/GND*%
X64000000Y-83550000D03*
%TD*%
D16*
%TO.N,/GND*%
X70505000Y-74500000D02*
X73810000Y-71195000D01*
X67000000Y-74500000D02*
X70505000Y-74500000D01*
X64000000Y-77500000D02*
X67000000Y-74500000D01*
X64000000Y-83550000D02*
X64000000Y-77500000D01*
%TO.N,/VDD*%
X83000000Y-79311160D02*
X77585160Y-84726000D01*
X67176000Y-84726000D02*
X66000000Y-83550000D01*
X81000000Y-49000000D02*
X83000000Y-51000000D01*
X83000000Y-51000000D02*
X83000000Y-79311160D01*
X80034000Y-49000000D02*
X81000000Y-49000000D01*
X66190000Y-78815000D02*
X66190000Y-83360000D01*
X66190000Y-83360000D02*
X66000000Y-83550000D01*
X77585160Y-84726000D02*
X67176000Y-84726000D01*
%TO.N,Net-(SPK1-Pin_1)*%
X82000000Y-66500000D02*
X82000000Y-63666000D01*
X82000000Y-63666000D02*
X80034000Y-61700000D01*
X77000000Y-71500000D02*
X82000000Y-66500000D01*
X77000000Y-83550000D02*
X77000000Y-71500000D01*
%TO.N,Net-(SPK1-Pin_2)*%
X76000000Y-70814000D02*
X80034000Y-66780000D01*
X75000000Y-83550000D02*
X75000000Y-82000000D01*
X75000000Y-82000000D02*
X76000000Y-81000000D01*
X76000000Y-81000000D02*
X76000000Y-70814000D01*
%TO.N,Net-(U1-PB1)*%
X78500000Y-67000000D02*
X74911000Y-70589000D01*
X74911000Y-75174000D02*
X71270000Y-78815000D01*
X74911000Y-70589000D02*
X74911000Y-75174000D01*
X80034000Y-51540000D02*
X78500000Y-53074000D01*
X78500000Y-53074000D02*
X78500000Y-67000000D01*
%TD*%
M02*
