%TF.GenerationSoftware,KiCad,Pcbnew,9.0.2*%
%TF.CreationDate,2025-05-25T16:27:38-07:00*%
%TF.ProjectId,PCB,5043422e-6b69-4636-9164-5f7063625858,rev?*%
%TF.SameCoordinates,Original*%
%TF.FileFunction,Drillmap*%
%TF.FilePolarity,Positive*%
%FSLAX45Y45*%
G04 Gerber Fmt 4.5, Leading zero omitted, Abs format (unit mm)*
G04 Created by KiCad (PCBNEW 9.0.2) date 2025-05-25 16:27:38*
%MOMM*%
%LPD*%
G01*
G04 APERTURE LIST*
%ADD10C,0.050000*%
%ADD11C,0.100000*%
%ADD12C,0.200000*%
%ADD13C,0.250000*%
%ADD14C,0.320000*%
G04 APERTURE END LIST*
D10*
X4700000Y-9100000D02*
X4700000Y-4700000D01*
X4700000Y-9100000D02*
X5300000Y-9100000D01*
X9200000Y-9200000D02*
X5300000Y-9200000D01*
X9200000Y-4700000D02*
X9200000Y-9200000D01*
X5300000Y-9200000D02*
X5300000Y-9100000D01*
X4700000Y-4700000D02*
X9200000Y-4700000D01*
D11*
X5200000Y-7750000D02*
G75*
G02*
X5000000Y-7750000I-100000J0D01*
G01*
X5000000Y-7750000D02*
G75*
G02*
X5200000Y-7750000I100000J0D01*
G01*
X6000000Y-6950000D02*
G75*
G02*
X5800000Y-6950000I-100000J0D01*
G01*
X5800000Y-6950000D02*
G75*
G02*
X6000000Y-6950000I100000J0D01*
G01*
X8100000Y-7750000D02*
G75*
G02*
X7900000Y-7750000I-100000J0D01*
G01*
X7900000Y-7750000D02*
G75*
G02*
X8100000Y-7750000I100000J0D01*
G01*
X8900000Y-6950000D02*
G75*
G02*
X8700000Y-6950000I-100000J0D01*
G01*
X8700000Y-6950000D02*
G75*
G02*
X8900000Y-6950000I100000J0D01*
G01*
D12*
D13*
X5600000Y-8750000D02*
X5850000Y-9000000D01*
X5850000Y-8750000D02*
X5600000Y-9000000D01*
X8550000Y-5930000D02*
X8800000Y-6180000D01*
X8800000Y-5930000D02*
X8550000Y-6180000D01*
D14*
X5320000Y-6060000D02*
G75*
G02*
X5000000Y-6060000I-160000J0D01*
G01*
X5000000Y-6060000D02*
G75*
G02*
X5320000Y-6060000I160000J0D01*
G01*
X9000000Y-8290000D02*
G75*
G02*
X8680000Y-8290000I-160000J0D01*
G01*
X8680000Y-8290000D02*
G75*
G02*
X9000000Y-8290000I160000J0D01*
G01*
D12*
X4958277Y-9513984D02*
X4958277Y-9313984D01*
X4958277Y-9313984D02*
X5005896Y-9313984D01*
X5005896Y-9313984D02*
X5034467Y-9323508D01*
X5034467Y-9323508D02*
X5053515Y-9342555D01*
X5053515Y-9342555D02*
X5063039Y-9361603D01*
X5063039Y-9361603D02*
X5072563Y-9399698D01*
X5072563Y-9399698D02*
X5072563Y-9428270D01*
X5072563Y-9428270D02*
X5063039Y-9466365D01*
X5063039Y-9466365D02*
X5053515Y-9485412D01*
X5053515Y-9485412D02*
X5034467Y-9504460D01*
X5034467Y-9504460D02*
X5005896Y-9513984D01*
X5005896Y-9513984D02*
X4958277Y-9513984D01*
X5158277Y-9513984D02*
X5158277Y-9380650D01*
X5158277Y-9418746D02*
X5167801Y-9399698D01*
X5167801Y-9399698D02*
X5177324Y-9390174D01*
X5177324Y-9390174D02*
X5196372Y-9380650D01*
X5196372Y-9380650D02*
X5215420Y-9380650D01*
X5282086Y-9513984D02*
X5282086Y-9380650D01*
X5282086Y-9313984D02*
X5272563Y-9323508D01*
X5272563Y-9323508D02*
X5282086Y-9333031D01*
X5282086Y-9333031D02*
X5291610Y-9323508D01*
X5291610Y-9323508D02*
X5282086Y-9313984D01*
X5282086Y-9313984D02*
X5282086Y-9333031D01*
X5405896Y-9513984D02*
X5386848Y-9504460D01*
X5386848Y-9504460D02*
X5377324Y-9485412D01*
X5377324Y-9485412D02*
X5377324Y-9313984D01*
X5510658Y-9513984D02*
X5491610Y-9504460D01*
X5491610Y-9504460D02*
X5482086Y-9485412D01*
X5482086Y-9485412D02*
X5482086Y-9313984D01*
X5739229Y-9513984D02*
X5739229Y-9313984D01*
X5739229Y-9313984D02*
X5805896Y-9456841D01*
X5805896Y-9456841D02*
X5872562Y-9313984D01*
X5872562Y-9313984D02*
X5872562Y-9513984D01*
X6053515Y-9513984D02*
X6053515Y-9409222D01*
X6053515Y-9409222D02*
X6043991Y-9390174D01*
X6043991Y-9390174D02*
X6024943Y-9380650D01*
X6024943Y-9380650D02*
X5986848Y-9380650D01*
X5986848Y-9380650D02*
X5967801Y-9390174D01*
X6053515Y-9504460D02*
X6034467Y-9513984D01*
X6034467Y-9513984D02*
X5986848Y-9513984D01*
X5986848Y-9513984D02*
X5967801Y-9504460D01*
X5967801Y-9504460D02*
X5958277Y-9485412D01*
X5958277Y-9485412D02*
X5958277Y-9466365D01*
X5958277Y-9466365D02*
X5967801Y-9447317D01*
X5967801Y-9447317D02*
X5986848Y-9437793D01*
X5986848Y-9437793D02*
X6034467Y-9437793D01*
X6034467Y-9437793D02*
X6053515Y-9428270D01*
X6148753Y-9380650D02*
X6148753Y-9580650D01*
X6148753Y-9390174D02*
X6167801Y-9380650D01*
X6167801Y-9380650D02*
X6205896Y-9380650D01*
X6205896Y-9380650D02*
X6224943Y-9390174D01*
X6224943Y-9390174D02*
X6234467Y-9399698D01*
X6234467Y-9399698D02*
X6243991Y-9418746D01*
X6243991Y-9418746D02*
X6243991Y-9475889D01*
X6243991Y-9475889D02*
X6234467Y-9494936D01*
X6234467Y-9494936D02*
X6224943Y-9504460D01*
X6224943Y-9504460D02*
X6205896Y-9513984D01*
X6205896Y-9513984D02*
X6167801Y-9513984D01*
X6167801Y-9513984D02*
X6148753Y-9504460D01*
X6329705Y-9494936D02*
X6339229Y-9504460D01*
X6339229Y-9504460D02*
X6329705Y-9513984D01*
X6329705Y-9513984D02*
X6320182Y-9504460D01*
X6320182Y-9504460D02*
X6329705Y-9494936D01*
X6329705Y-9494936D02*
X6329705Y-9513984D01*
X6329705Y-9390174D02*
X6339229Y-9399698D01*
X6339229Y-9399698D02*
X6329705Y-9409222D01*
X6329705Y-9409222D02*
X6320182Y-9399698D01*
X6320182Y-9399698D02*
X6329705Y-9390174D01*
X6329705Y-9390174D02*
X6329705Y-9409222D01*
X4497500Y-9742500D02*
X4697500Y-9942500D01*
X4697500Y-9742500D02*
X4497500Y-9942500D01*
X4948753Y-9753031D02*
X4958277Y-9743508D01*
X4958277Y-9743508D02*
X4977324Y-9733984D01*
X4977324Y-9733984D02*
X5024944Y-9733984D01*
X5024944Y-9733984D02*
X5043991Y-9743508D01*
X5043991Y-9743508D02*
X5053515Y-9753031D01*
X5053515Y-9753031D02*
X5063039Y-9772079D01*
X5063039Y-9772079D02*
X5063039Y-9791127D01*
X5063039Y-9791127D02*
X5053515Y-9819698D01*
X5053515Y-9819698D02*
X4939229Y-9933984D01*
X4939229Y-9933984D02*
X5063039Y-9933984D01*
X5148753Y-9914936D02*
X5158277Y-9924460D01*
X5158277Y-9924460D02*
X5148753Y-9933984D01*
X5148753Y-9933984D02*
X5139229Y-9924460D01*
X5139229Y-9924460D02*
X5148753Y-9914936D01*
X5148753Y-9914936D02*
X5148753Y-9933984D01*
X5339229Y-9733984D02*
X5243991Y-9733984D01*
X5243991Y-9733984D02*
X5234467Y-9829222D01*
X5234467Y-9829222D02*
X5243991Y-9819698D01*
X5243991Y-9819698D02*
X5263039Y-9810174D01*
X5263039Y-9810174D02*
X5310658Y-9810174D01*
X5310658Y-9810174D02*
X5329705Y-9819698D01*
X5329705Y-9819698D02*
X5339229Y-9829222D01*
X5339229Y-9829222D02*
X5348753Y-9848270D01*
X5348753Y-9848270D02*
X5348753Y-9895889D01*
X5348753Y-9895889D02*
X5339229Y-9914936D01*
X5339229Y-9914936D02*
X5329705Y-9924460D01*
X5329705Y-9924460D02*
X5310658Y-9933984D01*
X5310658Y-9933984D02*
X5263039Y-9933984D01*
X5263039Y-9933984D02*
X5243991Y-9924460D01*
X5243991Y-9924460D02*
X5234467Y-9914936D01*
X5472563Y-9733984D02*
X5491610Y-9733984D01*
X5491610Y-9733984D02*
X5510658Y-9743508D01*
X5510658Y-9743508D02*
X5520182Y-9753031D01*
X5520182Y-9753031D02*
X5529705Y-9772079D01*
X5529705Y-9772079D02*
X5539229Y-9810174D01*
X5539229Y-9810174D02*
X5539229Y-9857793D01*
X5539229Y-9857793D02*
X5529705Y-9895889D01*
X5529705Y-9895889D02*
X5520182Y-9914936D01*
X5520182Y-9914936D02*
X5510658Y-9924460D01*
X5510658Y-9924460D02*
X5491610Y-9933984D01*
X5491610Y-9933984D02*
X5472563Y-9933984D01*
X5472563Y-9933984D02*
X5453515Y-9924460D01*
X5453515Y-9924460D02*
X5443991Y-9914936D01*
X5443991Y-9914936D02*
X5434467Y-9895889D01*
X5434467Y-9895889D02*
X5424944Y-9857793D01*
X5424944Y-9857793D02*
X5424944Y-9810174D01*
X5424944Y-9810174D02*
X5434467Y-9772079D01*
X5434467Y-9772079D02*
X5443991Y-9753031D01*
X5443991Y-9753031D02*
X5453515Y-9743508D01*
X5453515Y-9743508D02*
X5472563Y-9733984D01*
X5663039Y-9733984D02*
X5682086Y-9733984D01*
X5682086Y-9733984D02*
X5701134Y-9743508D01*
X5701134Y-9743508D02*
X5710658Y-9753031D01*
X5710658Y-9753031D02*
X5720182Y-9772079D01*
X5720182Y-9772079D02*
X5729705Y-9810174D01*
X5729705Y-9810174D02*
X5729705Y-9857793D01*
X5729705Y-9857793D02*
X5720182Y-9895889D01*
X5720182Y-9895889D02*
X5710658Y-9914936D01*
X5710658Y-9914936D02*
X5701134Y-9924460D01*
X5701134Y-9924460D02*
X5682086Y-9933984D01*
X5682086Y-9933984D02*
X5663039Y-9933984D01*
X5663039Y-9933984D02*
X5643991Y-9924460D01*
X5643991Y-9924460D02*
X5634467Y-9914936D01*
X5634467Y-9914936D02*
X5624943Y-9895889D01*
X5624943Y-9895889D02*
X5615420Y-9857793D01*
X5615420Y-9857793D02*
X5615420Y-9810174D01*
X5615420Y-9810174D02*
X5624943Y-9772079D01*
X5624943Y-9772079D02*
X5634467Y-9753031D01*
X5634467Y-9753031D02*
X5643991Y-9743508D01*
X5643991Y-9743508D02*
X5663039Y-9733984D01*
X5815420Y-9933984D02*
X5815420Y-9800650D01*
X5815420Y-9819698D02*
X5824943Y-9810174D01*
X5824943Y-9810174D02*
X5843991Y-9800650D01*
X5843991Y-9800650D02*
X5872563Y-9800650D01*
X5872563Y-9800650D02*
X5891610Y-9810174D01*
X5891610Y-9810174D02*
X5901134Y-9829222D01*
X5901134Y-9829222D02*
X5901134Y-9933984D01*
X5901134Y-9829222D02*
X5910658Y-9810174D01*
X5910658Y-9810174D02*
X5929705Y-9800650D01*
X5929705Y-9800650D02*
X5958277Y-9800650D01*
X5958277Y-9800650D02*
X5977324Y-9810174D01*
X5977324Y-9810174D02*
X5986848Y-9829222D01*
X5986848Y-9829222D02*
X5986848Y-9933984D01*
X6082086Y-9933984D02*
X6082086Y-9800650D01*
X6082086Y-9819698D02*
X6091610Y-9810174D01*
X6091610Y-9810174D02*
X6110658Y-9800650D01*
X6110658Y-9800650D02*
X6139229Y-9800650D01*
X6139229Y-9800650D02*
X6158277Y-9810174D01*
X6158277Y-9810174D02*
X6167801Y-9829222D01*
X6167801Y-9829222D02*
X6167801Y-9933984D01*
X6167801Y-9829222D02*
X6177324Y-9810174D01*
X6177324Y-9810174D02*
X6196372Y-9800650D01*
X6196372Y-9800650D02*
X6224943Y-9800650D01*
X6224943Y-9800650D02*
X6243991Y-9810174D01*
X6243991Y-9810174D02*
X6253515Y-9829222D01*
X6253515Y-9829222D02*
X6253515Y-9933984D01*
X6643991Y-9724460D02*
X6472563Y-9981603D01*
X6901134Y-9733984D02*
X6920182Y-9733984D01*
X6920182Y-9733984D02*
X6939229Y-9743508D01*
X6939229Y-9743508D02*
X6948753Y-9753031D01*
X6948753Y-9753031D02*
X6958277Y-9772079D01*
X6958277Y-9772079D02*
X6967801Y-9810174D01*
X6967801Y-9810174D02*
X6967801Y-9857793D01*
X6967801Y-9857793D02*
X6958277Y-9895889D01*
X6958277Y-9895889D02*
X6948753Y-9914936D01*
X6948753Y-9914936D02*
X6939229Y-9924460D01*
X6939229Y-9924460D02*
X6920182Y-9933984D01*
X6920182Y-9933984D02*
X6901134Y-9933984D01*
X6901134Y-9933984D02*
X6882086Y-9924460D01*
X6882086Y-9924460D02*
X6872563Y-9914936D01*
X6872563Y-9914936D02*
X6863039Y-9895889D01*
X6863039Y-9895889D02*
X6853515Y-9857793D01*
X6853515Y-9857793D02*
X6853515Y-9810174D01*
X6853515Y-9810174D02*
X6863039Y-9772079D01*
X6863039Y-9772079D02*
X6872563Y-9753031D01*
X6872563Y-9753031D02*
X6882086Y-9743508D01*
X6882086Y-9743508D02*
X6901134Y-9733984D01*
X7053515Y-9914936D02*
X7063039Y-9924460D01*
X7063039Y-9924460D02*
X7053515Y-9933984D01*
X7053515Y-9933984D02*
X7043991Y-9924460D01*
X7043991Y-9924460D02*
X7053515Y-9914936D01*
X7053515Y-9914936D02*
X7053515Y-9933984D01*
X7186848Y-9733984D02*
X7205896Y-9733984D01*
X7205896Y-9733984D02*
X7224944Y-9743508D01*
X7224944Y-9743508D02*
X7234467Y-9753031D01*
X7234467Y-9753031D02*
X7243991Y-9772079D01*
X7243991Y-9772079D02*
X7253515Y-9810174D01*
X7253515Y-9810174D02*
X7253515Y-9857793D01*
X7253515Y-9857793D02*
X7243991Y-9895889D01*
X7243991Y-9895889D02*
X7234467Y-9914936D01*
X7234467Y-9914936D02*
X7224944Y-9924460D01*
X7224944Y-9924460D02*
X7205896Y-9933984D01*
X7205896Y-9933984D02*
X7186848Y-9933984D01*
X7186848Y-9933984D02*
X7167801Y-9924460D01*
X7167801Y-9924460D02*
X7158277Y-9914936D01*
X7158277Y-9914936D02*
X7148753Y-9895889D01*
X7148753Y-9895889D02*
X7139229Y-9857793D01*
X7139229Y-9857793D02*
X7139229Y-9810174D01*
X7139229Y-9810174D02*
X7148753Y-9772079D01*
X7148753Y-9772079D02*
X7158277Y-9753031D01*
X7158277Y-9753031D02*
X7167801Y-9743508D01*
X7167801Y-9743508D02*
X7186848Y-9733984D01*
X7348753Y-9933984D02*
X7386848Y-9933984D01*
X7386848Y-9933984D02*
X7405896Y-9924460D01*
X7405896Y-9924460D02*
X7415420Y-9914936D01*
X7415420Y-9914936D02*
X7434467Y-9886365D01*
X7434467Y-9886365D02*
X7443991Y-9848270D01*
X7443991Y-9848270D02*
X7443991Y-9772079D01*
X7443991Y-9772079D02*
X7434467Y-9753031D01*
X7434467Y-9753031D02*
X7424944Y-9743508D01*
X7424944Y-9743508D02*
X7405896Y-9733984D01*
X7405896Y-9733984D02*
X7367801Y-9733984D01*
X7367801Y-9733984D02*
X7348753Y-9743508D01*
X7348753Y-9743508D02*
X7339229Y-9753031D01*
X7339229Y-9753031D02*
X7329706Y-9772079D01*
X7329706Y-9772079D02*
X7329706Y-9819698D01*
X7329706Y-9819698D02*
X7339229Y-9838746D01*
X7339229Y-9838746D02*
X7348753Y-9848270D01*
X7348753Y-9848270D02*
X7367801Y-9857793D01*
X7367801Y-9857793D02*
X7405896Y-9857793D01*
X7405896Y-9857793D02*
X7424944Y-9848270D01*
X7424944Y-9848270D02*
X7434467Y-9838746D01*
X7434467Y-9838746D02*
X7443991Y-9819698D01*
X7558277Y-9819698D02*
X7539229Y-9810174D01*
X7539229Y-9810174D02*
X7529706Y-9800650D01*
X7529706Y-9800650D02*
X7520182Y-9781603D01*
X7520182Y-9781603D02*
X7520182Y-9772079D01*
X7520182Y-9772079D02*
X7529706Y-9753031D01*
X7529706Y-9753031D02*
X7539229Y-9743508D01*
X7539229Y-9743508D02*
X7558277Y-9733984D01*
X7558277Y-9733984D02*
X7596372Y-9733984D01*
X7596372Y-9733984D02*
X7615420Y-9743508D01*
X7615420Y-9743508D02*
X7624944Y-9753031D01*
X7624944Y-9753031D02*
X7634467Y-9772079D01*
X7634467Y-9772079D02*
X7634467Y-9781603D01*
X7634467Y-9781603D02*
X7624944Y-9800650D01*
X7624944Y-9800650D02*
X7615420Y-9810174D01*
X7615420Y-9810174D02*
X7596372Y-9819698D01*
X7596372Y-9819698D02*
X7558277Y-9819698D01*
X7558277Y-9819698D02*
X7539229Y-9829222D01*
X7539229Y-9829222D02*
X7529706Y-9838746D01*
X7529706Y-9838746D02*
X7520182Y-9857793D01*
X7520182Y-9857793D02*
X7520182Y-9895889D01*
X7520182Y-9895889D02*
X7529706Y-9914936D01*
X7529706Y-9914936D02*
X7539229Y-9924460D01*
X7539229Y-9924460D02*
X7558277Y-9933984D01*
X7558277Y-9933984D02*
X7596372Y-9933984D01*
X7596372Y-9933984D02*
X7615420Y-9924460D01*
X7615420Y-9924460D02*
X7624944Y-9914936D01*
X7624944Y-9914936D02*
X7634467Y-9895889D01*
X7634467Y-9895889D02*
X7634467Y-9857793D01*
X7634467Y-9857793D02*
X7624944Y-9838746D01*
X7624944Y-9838746D02*
X7615420Y-9829222D01*
X7615420Y-9829222D02*
X7596372Y-9819698D01*
X7805896Y-9800650D02*
X7805896Y-9933984D01*
X7758277Y-9724460D02*
X7710658Y-9867317D01*
X7710658Y-9867317D02*
X7834467Y-9867317D01*
X7901134Y-9733984D02*
X7901134Y-9772079D01*
X7977325Y-9733984D02*
X7977325Y-9772079D01*
X8272563Y-10010174D02*
X8263039Y-10000650D01*
X8263039Y-10000650D02*
X8243991Y-9972079D01*
X8243991Y-9972079D02*
X8234468Y-9953031D01*
X8234468Y-9953031D02*
X8224944Y-9924460D01*
X8224944Y-9924460D02*
X8215420Y-9876841D01*
X8215420Y-9876841D02*
X8215420Y-9838746D01*
X8215420Y-9838746D02*
X8224944Y-9791127D01*
X8224944Y-9791127D02*
X8234468Y-9762555D01*
X8234468Y-9762555D02*
X8243991Y-9743508D01*
X8243991Y-9743508D02*
X8263039Y-9714936D01*
X8263039Y-9714936D02*
X8272563Y-9705412D01*
X8339229Y-9753031D02*
X8348753Y-9743508D01*
X8348753Y-9743508D02*
X8367801Y-9733984D01*
X8367801Y-9733984D02*
X8415420Y-9733984D01*
X8415420Y-9733984D02*
X8434468Y-9743508D01*
X8434468Y-9743508D02*
X8443991Y-9753031D01*
X8443991Y-9753031D02*
X8453515Y-9772079D01*
X8453515Y-9772079D02*
X8453515Y-9791127D01*
X8453515Y-9791127D02*
X8443991Y-9819698D01*
X8443991Y-9819698D02*
X8329706Y-9933984D01*
X8329706Y-9933984D02*
X8453515Y-9933984D01*
X8691611Y-9933984D02*
X8691611Y-9733984D01*
X8777325Y-9933984D02*
X8777325Y-9829222D01*
X8777325Y-9829222D02*
X8767801Y-9810174D01*
X8767801Y-9810174D02*
X8748753Y-9800650D01*
X8748753Y-9800650D02*
X8720182Y-9800650D01*
X8720182Y-9800650D02*
X8701134Y-9810174D01*
X8701134Y-9810174D02*
X8691611Y-9819698D01*
X8901134Y-9933984D02*
X8882087Y-9924460D01*
X8882087Y-9924460D02*
X8872563Y-9914936D01*
X8872563Y-9914936D02*
X8863039Y-9895889D01*
X8863039Y-9895889D02*
X8863039Y-9838746D01*
X8863039Y-9838746D02*
X8872563Y-9819698D01*
X8872563Y-9819698D02*
X8882087Y-9810174D01*
X8882087Y-9810174D02*
X8901134Y-9800650D01*
X8901134Y-9800650D02*
X8929706Y-9800650D01*
X8929706Y-9800650D02*
X8948753Y-9810174D01*
X8948753Y-9810174D02*
X8958277Y-9819698D01*
X8958277Y-9819698D02*
X8967801Y-9838746D01*
X8967801Y-9838746D02*
X8967801Y-9895889D01*
X8967801Y-9895889D02*
X8958277Y-9914936D01*
X8958277Y-9914936D02*
X8948753Y-9924460D01*
X8948753Y-9924460D02*
X8929706Y-9933984D01*
X8929706Y-9933984D02*
X8901134Y-9933984D01*
X9082087Y-9933984D02*
X9063039Y-9924460D01*
X9063039Y-9924460D02*
X9053515Y-9905412D01*
X9053515Y-9905412D02*
X9053515Y-9733984D01*
X9234468Y-9924460D02*
X9215420Y-9933984D01*
X9215420Y-9933984D02*
X9177325Y-9933984D01*
X9177325Y-9933984D02*
X9158277Y-9924460D01*
X9158277Y-9924460D02*
X9148753Y-9905412D01*
X9148753Y-9905412D02*
X9148753Y-9829222D01*
X9148753Y-9829222D02*
X9158277Y-9810174D01*
X9158277Y-9810174D02*
X9177325Y-9800650D01*
X9177325Y-9800650D02*
X9215420Y-9800650D01*
X9215420Y-9800650D02*
X9234468Y-9810174D01*
X9234468Y-9810174D02*
X9243992Y-9829222D01*
X9243992Y-9829222D02*
X9243992Y-9848270D01*
X9243992Y-9848270D02*
X9148753Y-9867317D01*
X9320182Y-9924460D02*
X9339230Y-9933984D01*
X9339230Y-9933984D02*
X9377325Y-9933984D01*
X9377325Y-9933984D02*
X9396373Y-9924460D01*
X9396373Y-9924460D02*
X9405896Y-9905412D01*
X9405896Y-9905412D02*
X9405896Y-9895889D01*
X9405896Y-9895889D02*
X9396373Y-9876841D01*
X9396373Y-9876841D02*
X9377325Y-9867317D01*
X9377325Y-9867317D02*
X9348753Y-9867317D01*
X9348753Y-9867317D02*
X9329706Y-9857793D01*
X9329706Y-9857793D02*
X9320182Y-9838746D01*
X9320182Y-9838746D02*
X9320182Y-9829222D01*
X9320182Y-9829222D02*
X9329706Y-9810174D01*
X9329706Y-9810174D02*
X9348753Y-9800650D01*
X9348753Y-9800650D02*
X9377325Y-9800650D01*
X9377325Y-9800650D02*
X9396373Y-9810174D01*
X9472563Y-10010174D02*
X9482087Y-10000650D01*
X9482087Y-10000650D02*
X9501134Y-9972079D01*
X9501134Y-9972079D02*
X9510658Y-9953031D01*
X9510658Y-9953031D02*
X9520182Y-9924460D01*
X9520182Y-9924460D02*
X9529706Y-9876841D01*
X9529706Y-9876841D02*
X9529706Y-9838746D01*
X9529706Y-9838746D02*
X9520182Y-9791127D01*
X9520182Y-9791127D02*
X9510658Y-9762555D01*
X9510658Y-9762555D02*
X9501134Y-9743508D01*
X9501134Y-9743508D02*
X9482087Y-9714936D01*
X9482087Y-9714936D02*
X9472563Y-9705412D01*
X9834468Y-10010174D02*
X9824944Y-10000650D01*
X9824944Y-10000650D02*
X9805896Y-9972079D01*
X9805896Y-9972079D02*
X9796373Y-9953031D01*
X9796373Y-9953031D02*
X9786849Y-9924460D01*
X9786849Y-9924460D02*
X9777325Y-9876841D01*
X9777325Y-9876841D02*
X9777325Y-9838746D01*
X9777325Y-9838746D02*
X9786849Y-9791127D01*
X9786849Y-9791127D02*
X9796373Y-9762555D01*
X9796373Y-9762555D02*
X9805896Y-9743508D01*
X9805896Y-9743508D02*
X9824944Y-9714936D01*
X9824944Y-9714936D02*
X9834468Y-9705412D01*
X9910658Y-9800650D02*
X9910658Y-9933984D01*
X9910658Y-9819698D02*
X9920182Y-9810174D01*
X9920182Y-9810174D02*
X9939230Y-9800650D01*
X9939230Y-9800650D02*
X9967801Y-9800650D01*
X9967801Y-9800650D02*
X9986849Y-9810174D01*
X9986849Y-9810174D02*
X9996373Y-9829222D01*
X9996373Y-9829222D02*
X9996373Y-9933984D01*
X10120182Y-9933984D02*
X10101134Y-9924460D01*
X10101134Y-9924460D02*
X10091611Y-9914936D01*
X10091611Y-9914936D02*
X10082087Y-9895889D01*
X10082087Y-9895889D02*
X10082087Y-9838746D01*
X10082087Y-9838746D02*
X10091611Y-9819698D01*
X10091611Y-9819698D02*
X10101134Y-9810174D01*
X10101134Y-9810174D02*
X10120182Y-9800650D01*
X10120182Y-9800650D02*
X10148754Y-9800650D01*
X10148754Y-9800650D02*
X10167801Y-9810174D01*
X10167801Y-9810174D02*
X10177325Y-9819698D01*
X10177325Y-9819698D02*
X10186849Y-9838746D01*
X10186849Y-9838746D02*
X10186849Y-9895889D01*
X10186849Y-9895889D02*
X10177325Y-9914936D01*
X10177325Y-9914936D02*
X10167801Y-9924460D01*
X10167801Y-9924460D02*
X10148754Y-9933984D01*
X10148754Y-9933984D02*
X10120182Y-9933984D01*
X10243992Y-9800650D02*
X10320182Y-9800650D01*
X10272563Y-9733984D02*
X10272563Y-9905412D01*
X10272563Y-9905412D02*
X10282087Y-9924460D01*
X10282087Y-9924460D02*
X10301134Y-9933984D01*
X10301134Y-9933984D02*
X10320182Y-9933984D01*
X10539230Y-9800650D02*
X10539230Y-10000650D01*
X10539230Y-9810174D02*
X10558277Y-9800650D01*
X10558277Y-9800650D02*
X10596373Y-9800650D01*
X10596373Y-9800650D02*
X10615420Y-9810174D01*
X10615420Y-9810174D02*
X10624944Y-9819698D01*
X10624944Y-9819698D02*
X10634468Y-9838746D01*
X10634468Y-9838746D02*
X10634468Y-9895889D01*
X10634468Y-9895889D02*
X10624944Y-9914936D01*
X10624944Y-9914936D02*
X10615420Y-9924460D01*
X10615420Y-9924460D02*
X10596373Y-9933984D01*
X10596373Y-9933984D02*
X10558277Y-9933984D01*
X10558277Y-9933984D02*
X10539230Y-9924460D01*
X10748754Y-9933984D02*
X10729706Y-9924460D01*
X10729706Y-9924460D02*
X10720182Y-9905412D01*
X10720182Y-9905412D02*
X10720182Y-9733984D01*
X10910658Y-9933984D02*
X10910658Y-9829222D01*
X10910658Y-9829222D02*
X10901135Y-9810174D01*
X10901135Y-9810174D02*
X10882087Y-9800650D01*
X10882087Y-9800650D02*
X10843992Y-9800650D01*
X10843992Y-9800650D02*
X10824944Y-9810174D01*
X10910658Y-9924460D02*
X10891611Y-9933984D01*
X10891611Y-9933984D02*
X10843992Y-9933984D01*
X10843992Y-9933984D02*
X10824944Y-9924460D01*
X10824944Y-9924460D02*
X10815420Y-9905412D01*
X10815420Y-9905412D02*
X10815420Y-9886365D01*
X10815420Y-9886365D02*
X10824944Y-9867317D01*
X10824944Y-9867317D02*
X10843992Y-9857793D01*
X10843992Y-9857793D02*
X10891611Y-9857793D01*
X10891611Y-9857793D02*
X10910658Y-9848270D01*
X10977325Y-9800650D02*
X11053515Y-9800650D01*
X11005896Y-9733984D02*
X11005896Y-9905412D01*
X11005896Y-9905412D02*
X11015420Y-9924460D01*
X11015420Y-9924460D02*
X11034468Y-9933984D01*
X11034468Y-9933984D02*
X11053515Y-9933984D01*
X11196373Y-9924460D02*
X11177325Y-9933984D01*
X11177325Y-9933984D02*
X11139230Y-9933984D01*
X11139230Y-9933984D02*
X11120182Y-9924460D01*
X11120182Y-9924460D02*
X11110658Y-9905412D01*
X11110658Y-9905412D02*
X11110658Y-9829222D01*
X11110658Y-9829222D02*
X11120182Y-9810174D01*
X11120182Y-9810174D02*
X11139230Y-9800650D01*
X11139230Y-9800650D02*
X11177325Y-9800650D01*
X11177325Y-9800650D02*
X11196373Y-9810174D01*
X11196373Y-9810174D02*
X11205896Y-9829222D01*
X11205896Y-9829222D02*
X11205896Y-9848270D01*
X11205896Y-9848270D02*
X11110658Y-9867317D01*
X11377325Y-9933984D02*
X11377325Y-9733984D01*
X11377325Y-9924460D02*
X11358277Y-9933984D01*
X11358277Y-9933984D02*
X11320182Y-9933984D01*
X11320182Y-9933984D02*
X11301134Y-9924460D01*
X11301134Y-9924460D02*
X11291611Y-9914936D01*
X11291611Y-9914936D02*
X11282087Y-9895889D01*
X11282087Y-9895889D02*
X11282087Y-9838746D01*
X11282087Y-9838746D02*
X11291611Y-9819698D01*
X11291611Y-9819698D02*
X11301134Y-9810174D01*
X11301134Y-9810174D02*
X11320182Y-9800650D01*
X11320182Y-9800650D02*
X11358277Y-9800650D01*
X11358277Y-9800650D02*
X11377325Y-9810174D01*
X11453515Y-10010174D02*
X11463039Y-10000650D01*
X11463039Y-10000650D02*
X11482087Y-9972079D01*
X11482087Y-9972079D02*
X11491611Y-9953031D01*
X11491611Y-9953031D02*
X11501134Y-9924460D01*
X11501134Y-9924460D02*
X11510658Y-9876841D01*
X11510658Y-9876841D02*
X11510658Y-9838746D01*
X11510658Y-9838746D02*
X11501134Y-9791127D01*
X11501134Y-9791127D02*
X11491611Y-9762555D01*
X11491611Y-9762555D02*
X11482087Y-9743508D01*
X11482087Y-9743508D02*
X11463039Y-9714936D01*
X11463039Y-9714936D02*
X11453515Y-9705412D01*
X4697500Y-10162500D02*
G75*
G02*
X4497500Y-10162500I-100000J0D01*
G01*
X4497500Y-10162500D02*
G75*
G02*
X4697500Y-10162500I100000J0D01*
G01*
X4939229Y-10053984D02*
X5063039Y-10053984D01*
X5063039Y-10053984D02*
X4996372Y-10130174D01*
X4996372Y-10130174D02*
X5024944Y-10130174D01*
X5024944Y-10130174D02*
X5043991Y-10139698D01*
X5043991Y-10139698D02*
X5053515Y-10149222D01*
X5053515Y-10149222D02*
X5063039Y-10168270D01*
X5063039Y-10168270D02*
X5063039Y-10215889D01*
X5063039Y-10215889D02*
X5053515Y-10234936D01*
X5053515Y-10234936D02*
X5043991Y-10244460D01*
X5043991Y-10244460D02*
X5024944Y-10253984D01*
X5024944Y-10253984D02*
X4967801Y-10253984D01*
X4967801Y-10253984D02*
X4948753Y-10244460D01*
X4948753Y-10244460D02*
X4939229Y-10234936D01*
X5148753Y-10234936D02*
X5158277Y-10244460D01*
X5158277Y-10244460D02*
X5148753Y-10253984D01*
X5148753Y-10253984D02*
X5139229Y-10244460D01*
X5139229Y-10244460D02*
X5148753Y-10234936D01*
X5148753Y-10234936D02*
X5148753Y-10253984D01*
X5234467Y-10073031D02*
X5243991Y-10063508D01*
X5243991Y-10063508D02*
X5263039Y-10053984D01*
X5263039Y-10053984D02*
X5310658Y-10053984D01*
X5310658Y-10053984D02*
X5329705Y-10063508D01*
X5329705Y-10063508D02*
X5339229Y-10073031D01*
X5339229Y-10073031D02*
X5348753Y-10092079D01*
X5348753Y-10092079D02*
X5348753Y-10111127D01*
X5348753Y-10111127D02*
X5339229Y-10139698D01*
X5339229Y-10139698D02*
X5224944Y-10253984D01*
X5224944Y-10253984D02*
X5348753Y-10253984D01*
X5472563Y-10053984D02*
X5491610Y-10053984D01*
X5491610Y-10053984D02*
X5510658Y-10063508D01*
X5510658Y-10063508D02*
X5520182Y-10073031D01*
X5520182Y-10073031D02*
X5529705Y-10092079D01*
X5529705Y-10092079D02*
X5539229Y-10130174D01*
X5539229Y-10130174D02*
X5539229Y-10177793D01*
X5539229Y-10177793D02*
X5529705Y-10215889D01*
X5529705Y-10215889D02*
X5520182Y-10234936D01*
X5520182Y-10234936D02*
X5510658Y-10244460D01*
X5510658Y-10244460D02*
X5491610Y-10253984D01*
X5491610Y-10253984D02*
X5472563Y-10253984D01*
X5472563Y-10253984D02*
X5453515Y-10244460D01*
X5453515Y-10244460D02*
X5443991Y-10234936D01*
X5443991Y-10234936D02*
X5434467Y-10215889D01*
X5434467Y-10215889D02*
X5424944Y-10177793D01*
X5424944Y-10177793D02*
X5424944Y-10130174D01*
X5424944Y-10130174D02*
X5434467Y-10092079D01*
X5434467Y-10092079D02*
X5443991Y-10073031D01*
X5443991Y-10073031D02*
X5453515Y-10063508D01*
X5453515Y-10063508D02*
X5472563Y-10053984D01*
X5663039Y-10053984D02*
X5682086Y-10053984D01*
X5682086Y-10053984D02*
X5701134Y-10063508D01*
X5701134Y-10063508D02*
X5710658Y-10073031D01*
X5710658Y-10073031D02*
X5720182Y-10092079D01*
X5720182Y-10092079D02*
X5729705Y-10130174D01*
X5729705Y-10130174D02*
X5729705Y-10177793D01*
X5729705Y-10177793D02*
X5720182Y-10215889D01*
X5720182Y-10215889D02*
X5710658Y-10234936D01*
X5710658Y-10234936D02*
X5701134Y-10244460D01*
X5701134Y-10244460D02*
X5682086Y-10253984D01*
X5682086Y-10253984D02*
X5663039Y-10253984D01*
X5663039Y-10253984D02*
X5643991Y-10244460D01*
X5643991Y-10244460D02*
X5634467Y-10234936D01*
X5634467Y-10234936D02*
X5624943Y-10215889D01*
X5624943Y-10215889D02*
X5615420Y-10177793D01*
X5615420Y-10177793D02*
X5615420Y-10130174D01*
X5615420Y-10130174D02*
X5624943Y-10092079D01*
X5624943Y-10092079D02*
X5634467Y-10073031D01*
X5634467Y-10073031D02*
X5643991Y-10063508D01*
X5643991Y-10063508D02*
X5663039Y-10053984D01*
X5815420Y-10253984D02*
X5815420Y-10120650D01*
X5815420Y-10139698D02*
X5824943Y-10130174D01*
X5824943Y-10130174D02*
X5843991Y-10120650D01*
X5843991Y-10120650D02*
X5872563Y-10120650D01*
X5872563Y-10120650D02*
X5891610Y-10130174D01*
X5891610Y-10130174D02*
X5901134Y-10149222D01*
X5901134Y-10149222D02*
X5901134Y-10253984D01*
X5901134Y-10149222D02*
X5910658Y-10130174D01*
X5910658Y-10130174D02*
X5929705Y-10120650D01*
X5929705Y-10120650D02*
X5958277Y-10120650D01*
X5958277Y-10120650D02*
X5977324Y-10130174D01*
X5977324Y-10130174D02*
X5986848Y-10149222D01*
X5986848Y-10149222D02*
X5986848Y-10253984D01*
X6082086Y-10253984D02*
X6082086Y-10120650D01*
X6082086Y-10139698D02*
X6091610Y-10130174D01*
X6091610Y-10130174D02*
X6110658Y-10120650D01*
X6110658Y-10120650D02*
X6139229Y-10120650D01*
X6139229Y-10120650D02*
X6158277Y-10130174D01*
X6158277Y-10130174D02*
X6167801Y-10149222D01*
X6167801Y-10149222D02*
X6167801Y-10253984D01*
X6167801Y-10149222D02*
X6177324Y-10130174D01*
X6177324Y-10130174D02*
X6196372Y-10120650D01*
X6196372Y-10120650D02*
X6224943Y-10120650D01*
X6224943Y-10120650D02*
X6243991Y-10130174D01*
X6243991Y-10130174D02*
X6253515Y-10149222D01*
X6253515Y-10149222D02*
X6253515Y-10253984D01*
X6643991Y-10044460D02*
X6472563Y-10301603D01*
X6901134Y-10053984D02*
X6920182Y-10053984D01*
X6920182Y-10053984D02*
X6939229Y-10063508D01*
X6939229Y-10063508D02*
X6948753Y-10073031D01*
X6948753Y-10073031D02*
X6958277Y-10092079D01*
X6958277Y-10092079D02*
X6967801Y-10130174D01*
X6967801Y-10130174D02*
X6967801Y-10177793D01*
X6967801Y-10177793D02*
X6958277Y-10215889D01*
X6958277Y-10215889D02*
X6948753Y-10234936D01*
X6948753Y-10234936D02*
X6939229Y-10244460D01*
X6939229Y-10244460D02*
X6920182Y-10253984D01*
X6920182Y-10253984D02*
X6901134Y-10253984D01*
X6901134Y-10253984D02*
X6882086Y-10244460D01*
X6882086Y-10244460D02*
X6872563Y-10234936D01*
X6872563Y-10234936D02*
X6863039Y-10215889D01*
X6863039Y-10215889D02*
X6853515Y-10177793D01*
X6853515Y-10177793D02*
X6853515Y-10130174D01*
X6853515Y-10130174D02*
X6863039Y-10092079D01*
X6863039Y-10092079D02*
X6872563Y-10073031D01*
X6872563Y-10073031D02*
X6882086Y-10063508D01*
X6882086Y-10063508D02*
X6901134Y-10053984D01*
X7053515Y-10234936D02*
X7063039Y-10244460D01*
X7063039Y-10244460D02*
X7053515Y-10253984D01*
X7053515Y-10253984D02*
X7043991Y-10244460D01*
X7043991Y-10244460D02*
X7053515Y-10234936D01*
X7053515Y-10234936D02*
X7053515Y-10253984D01*
X7253515Y-10253984D02*
X7139229Y-10253984D01*
X7196372Y-10253984D02*
X7196372Y-10053984D01*
X7196372Y-10053984D02*
X7177325Y-10082555D01*
X7177325Y-10082555D02*
X7158277Y-10101603D01*
X7158277Y-10101603D02*
X7139229Y-10111127D01*
X7329706Y-10073031D02*
X7339229Y-10063508D01*
X7339229Y-10063508D02*
X7358277Y-10053984D01*
X7358277Y-10053984D02*
X7405896Y-10053984D01*
X7405896Y-10053984D02*
X7424944Y-10063508D01*
X7424944Y-10063508D02*
X7434467Y-10073031D01*
X7434467Y-10073031D02*
X7443991Y-10092079D01*
X7443991Y-10092079D02*
X7443991Y-10111127D01*
X7443991Y-10111127D02*
X7434467Y-10139698D01*
X7434467Y-10139698D02*
X7320182Y-10253984D01*
X7320182Y-10253984D02*
X7443991Y-10253984D01*
X7615420Y-10053984D02*
X7577325Y-10053984D01*
X7577325Y-10053984D02*
X7558277Y-10063508D01*
X7558277Y-10063508D02*
X7548753Y-10073031D01*
X7548753Y-10073031D02*
X7529706Y-10101603D01*
X7529706Y-10101603D02*
X7520182Y-10139698D01*
X7520182Y-10139698D02*
X7520182Y-10215889D01*
X7520182Y-10215889D02*
X7529706Y-10234936D01*
X7529706Y-10234936D02*
X7539229Y-10244460D01*
X7539229Y-10244460D02*
X7558277Y-10253984D01*
X7558277Y-10253984D02*
X7596372Y-10253984D01*
X7596372Y-10253984D02*
X7615420Y-10244460D01*
X7615420Y-10244460D02*
X7624944Y-10234936D01*
X7624944Y-10234936D02*
X7634467Y-10215889D01*
X7634467Y-10215889D02*
X7634467Y-10168270D01*
X7634467Y-10168270D02*
X7624944Y-10149222D01*
X7624944Y-10149222D02*
X7615420Y-10139698D01*
X7615420Y-10139698D02*
X7596372Y-10130174D01*
X7596372Y-10130174D02*
X7558277Y-10130174D01*
X7558277Y-10130174D02*
X7539229Y-10139698D01*
X7539229Y-10139698D02*
X7529706Y-10149222D01*
X7529706Y-10149222D02*
X7520182Y-10168270D01*
X7758277Y-10053984D02*
X7777325Y-10053984D01*
X7777325Y-10053984D02*
X7796372Y-10063508D01*
X7796372Y-10063508D02*
X7805896Y-10073031D01*
X7805896Y-10073031D02*
X7815420Y-10092079D01*
X7815420Y-10092079D02*
X7824944Y-10130174D01*
X7824944Y-10130174D02*
X7824944Y-10177793D01*
X7824944Y-10177793D02*
X7815420Y-10215889D01*
X7815420Y-10215889D02*
X7805896Y-10234936D01*
X7805896Y-10234936D02*
X7796372Y-10244460D01*
X7796372Y-10244460D02*
X7777325Y-10253984D01*
X7777325Y-10253984D02*
X7758277Y-10253984D01*
X7758277Y-10253984D02*
X7739229Y-10244460D01*
X7739229Y-10244460D02*
X7729706Y-10234936D01*
X7729706Y-10234936D02*
X7720182Y-10215889D01*
X7720182Y-10215889D02*
X7710658Y-10177793D01*
X7710658Y-10177793D02*
X7710658Y-10130174D01*
X7710658Y-10130174D02*
X7720182Y-10092079D01*
X7720182Y-10092079D02*
X7729706Y-10073031D01*
X7729706Y-10073031D02*
X7739229Y-10063508D01*
X7739229Y-10063508D02*
X7758277Y-10053984D01*
X7901134Y-10053984D02*
X7901134Y-10092079D01*
X7977325Y-10053984D02*
X7977325Y-10092079D01*
X8272563Y-10330174D02*
X8263039Y-10320650D01*
X8263039Y-10320650D02*
X8243991Y-10292079D01*
X8243991Y-10292079D02*
X8234468Y-10273031D01*
X8234468Y-10273031D02*
X8224944Y-10244460D01*
X8224944Y-10244460D02*
X8215420Y-10196841D01*
X8215420Y-10196841D02*
X8215420Y-10158746D01*
X8215420Y-10158746D02*
X8224944Y-10111127D01*
X8224944Y-10111127D02*
X8234468Y-10082555D01*
X8234468Y-10082555D02*
X8243991Y-10063508D01*
X8243991Y-10063508D02*
X8263039Y-10034936D01*
X8263039Y-10034936D02*
X8272563Y-10025412D01*
X8339229Y-10073031D02*
X8348753Y-10063508D01*
X8348753Y-10063508D02*
X8367801Y-10053984D01*
X8367801Y-10053984D02*
X8415420Y-10053984D01*
X8415420Y-10053984D02*
X8434468Y-10063508D01*
X8434468Y-10063508D02*
X8443991Y-10073031D01*
X8443991Y-10073031D02*
X8453515Y-10092079D01*
X8453515Y-10092079D02*
X8453515Y-10111127D01*
X8453515Y-10111127D02*
X8443991Y-10139698D01*
X8443991Y-10139698D02*
X8329706Y-10253984D01*
X8329706Y-10253984D02*
X8453515Y-10253984D01*
X8691611Y-10253984D02*
X8691611Y-10053984D01*
X8777325Y-10253984D02*
X8777325Y-10149222D01*
X8777325Y-10149222D02*
X8767801Y-10130174D01*
X8767801Y-10130174D02*
X8748753Y-10120650D01*
X8748753Y-10120650D02*
X8720182Y-10120650D01*
X8720182Y-10120650D02*
X8701134Y-10130174D01*
X8701134Y-10130174D02*
X8691611Y-10139698D01*
X8901134Y-10253984D02*
X8882087Y-10244460D01*
X8882087Y-10244460D02*
X8872563Y-10234936D01*
X8872563Y-10234936D02*
X8863039Y-10215889D01*
X8863039Y-10215889D02*
X8863039Y-10158746D01*
X8863039Y-10158746D02*
X8872563Y-10139698D01*
X8872563Y-10139698D02*
X8882087Y-10130174D01*
X8882087Y-10130174D02*
X8901134Y-10120650D01*
X8901134Y-10120650D02*
X8929706Y-10120650D01*
X8929706Y-10120650D02*
X8948753Y-10130174D01*
X8948753Y-10130174D02*
X8958277Y-10139698D01*
X8958277Y-10139698D02*
X8967801Y-10158746D01*
X8967801Y-10158746D02*
X8967801Y-10215889D01*
X8967801Y-10215889D02*
X8958277Y-10234936D01*
X8958277Y-10234936D02*
X8948753Y-10244460D01*
X8948753Y-10244460D02*
X8929706Y-10253984D01*
X8929706Y-10253984D02*
X8901134Y-10253984D01*
X9082087Y-10253984D02*
X9063039Y-10244460D01*
X9063039Y-10244460D02*
X9053515Y-10225412D01*
X9053515Y-10225412D02*
X9053515Y-10053984D01*
X9234468Y-10244460D02*
X9215420Y-10253984D01*
X9215420Y-10253984D02*
X9177325Y-10253984D01*
X9177325Y-10253984D02*
X9158277Y-10244460D01*
X9158277Y-10244460D02*
X9148753Y-10225412D01*
X9148753Y-10225412D02*
X9148753Y-10149222D01*
X9148753Y-10149222D02*
X9158277Y-10130174D01*
X9158277Y-10130174D02*
X9177325Y-10120650D01*
X9177325Y-10120650D02*
X9215420Y-10120650D01*
X9215420Y-10120650D02*
X9234468Y-10130174D01*
X9234468Y-10130174D02*
X9243992Y-10149222D01*
X9243992Y-10149222D02*
X9243992Y-10168270D01*
X9243992Y-10168270D02*
X9148753Y-10187317D01*
X9320182Y-10244460D02*
X9339230Y-10253984D01*
X9339230Y-10253984D02*
X9377325Y-10253984D01*
X9377325Y-10253984D02*
X9396373Y-10244460D01*
X9396373Y-10244460D02*
X9405896Y-10225412D01*
X9405896Y-10225412D02*
X9405896Y-10215889D01*
X9405896Y-10215889D02*
X9396373Y-10196841D01*
X9396373Y-10196841D02*
X9377325Y-10187317D01*
X9377325Y-10187317D02*
X9348753Y-10187317D01*
X9348753Y-10187317D02*
X9329706Y-10177793D01*
X9329706Y-10177793D02*
X9320182Y-10158746D01*
X9320182Y-10158746D02*
X9320182Y-10149222D01*
X9320182Y-10149222D02*
X9329706Y-10130174D01*
X9329706Y-10130174D02*
X9348753Y-10120650D01*
X9348753Y-10120650D02*
X9377325Y-10120650D01*
X9377325Y-10120650D02*
X9396373Y-10130174D01*
X9472563Y-10330174D02*
X9482087Y-10320650D01*
X9482087Y-10320650D02*
X9501134Y-10292079D01*
X9501134Y-10292079D02*
X9510658Y-10273031D01*
X9510658Y-10273031D02*
X9520182Y-10244460D01*
X9520182Y-10244460D02*
X9529706Y-10196841D01*
X9529706Y-10196841D02*
X9529706Y-10158746D01*
X9529706Y-10158746D02*
X9520182Y-10111127D01*
X9520182Y-10111127D02*
X9510658Y-10082555D01*
X9510658Y-10082555D02*
X9501134Y-10063508D01*
X9501134Y-10063508D02*
X9482087Y-10034936D01*
X9482087Y-10034936D02*
X9472563Y-10025412D01*
X9834468Y-10330174D02*
X9824944Y-10320650D01*
X9824944Y-10320650D02*
X9805896Y-10292079D01*
X9805896Y-10292079D02*
X9796373Y-10273031D01*
X9796373Y-10273031D02*
X9786849Y-10244460D01*
X9786849Y-10244460D02*
X9777325Y-10196841D01*
X9777325Y-10196841D02*
X9777325Y-10158746D01*
X9777325Y-10158746D02*
X9786849Y-10111127D01*
X9786849Y-10111127D02*
X9796373Y-10082555D01*
X9796373Y-10082555D02*
X9805896Y-10063508D01*
X9805896Y-10063508D02*
X9824944Y-10034936D01*
X9824944Y-10034936D02*
X9834468Y-10025412D01*
X9910658Y-10120650D02*
X9910658Y-10253984D01*
X9910658Y-10139698D02*
X9920182Y-10130174D01*
X9920182Y-10130174D02*
X9939230Y-10120650D01*
X9939230Y-10120650D02*
X9967801Y-10120650D01*
X9967801Y-10120650D02*
X9986849Y-10130174D01*
X9986849Y-10130174D02*
X9996373Y-10149222D01*
X9996373Y-10149222D02*
X9996373Y-10253984D01*
X10120182Y-10253984D02*
X10101134Y-10244460D01*
X10101134Y-10244460D02*
X10091611Y-10234936D01*
X10091611Y-10234936D02*
X10082087Y-10215889D01*
X10082087Y-10215889D02*
X10082087Y-10158746D01*
X10082087Y-10158746D02*
X10091611Y-10139698D01*
X10091611Y-10139698D02*
X10101134Y-10130174D01*
X10101134Y-10130174D02*
X10120182Y-10120650D01*
X10120182Y-10120650D02*
X10148754Y-10120650D01*
X10148754Y-10120650D02*
X10167801Y-10130174D01*
X10167801Y-10130174D02*
X10177325Y-10139698D01*
X10177325Y-10139698D02*
X10186849Y-10158746D01*
X10186849Y-10158746D02*
X10186849Y-10215889D01*
X10186849Y-10215889D02*
X10177325Y-10234936D01*
X10177325Y-10234936D02*
X10167801Y-10244460D01*
X10167801Y-10244460D02*
X10148754Y-10253984D01*
X10148754Y-10253984D02*
X10120182Y-10253984D01*
X10243992Y-10120650D02*
X10320182Y-10120650D01*
X10272563Y-10053984D02*
X10272563Y-10225412D01*
X10272563Y-10225412D02*
X10282087Y-10244460D01*
X10282087Y-10244460D02*
X10301134Y-10253984D01*
X10301134Y-10253984D02*
X10320182Y-10253984D01*
X10539230Y-10120650D02*
X10539230Y-10320650D01*
X10539230Y-10130174D02*
X10558277Y-10120650D01*
X10558277Y-10120650D02*
X10596373Y-10120650D01*
X10596373Y-10120650D02*
X10615420Y-10130174D01*
X10615420Y-10130174D02*
X10624944Y-10139698D01*
X10624944Y-10139698D02*
X10634468Y-10158746D01*
X10634468Y-10158746D02*
X10634468Y-10215889D01*
X10634468Y-10215889D02*
X10624944Y-10234936D01*
X10624944Y-10234936D02*
X10615420Y-10244460D01*
X10615420Y-10244460D02*
X10596373Y-10253984D01*
X10596373Y-10253984D02*
X10558277Y-10253984D01*
X10558277Y-10253984D02*
X10539230Y-10244460D01*
X10748754Y-10253984D02*
X10729706Y-10244460D01*
X10729706Y-10244460D02*
X10720182Y-10225412D01*
X10720182Y-10225412D02*
X10720182Y-10053984D01*
X10910658Y-10253984D02*
X10910658Y-10149222D01*
X10910658Y-10149222D02*
X10901135Y-10130174D01*
X10901135Y-10130174D02*
X10882087Y-10120650D01*
X10882087Y-10120650D02*
X10843992Y-10120650D01*
X10843992Y-10120650D02*
X10824944Y-10130174D01*
X10910658Y-10244460D02*
X10891611Y-10253984D01*
X10891611Y-10253984D02*
X10843992Y-10253984D01*
X10843992Y-10253984D02*
X10824944Y-10244460D01*
X10824944Y-10244460D02*
X10815420Y-10225412D01*
X10815420Y-10225412D02*
X10815420Y-10206365D01*
X10815420Y-10206365D02*
X10824944Y-10187317D01*
X10824944Y-10187317D02*
X10843992Y-10177793D01*
X10843992Y-10177793D02*
X10891611Y-10177793D01*
X10891611Y-10177793D02*
X10910658Y-10168270D01*
X10977325Y-10120650D02*
X11053515Y-10120650D01*
X11005896Y-10053984D02*
X11005896Y-10225412D01*
X11005896Y-10225412D02*
X11015420Y-10244460D01*
X11015420Y-10244460D02*
X11034468Y-10253984D01*
X11034468Y-10253984D02*
X11053515Y-10253984D01*
X11196373Y-10244460D02*
X11177325Y-10253984D01*
X11177325Y-10253984D02*
X11139230Y-10253984D01*
X11139230Y-10253984D02*
X11120182Y-10244460D01*
X11120182Y-10244460D02*
X11110658Y-10225412D01*
X11110658Y-10225412D02*
X11110658Y-10149222D01*
X11110658Y-10149222D02*
X11120182Y-10130174D01*
X11120182Y-10130174D02*
X11139230Y-10120650D01*
X11139230Y-10120650D02*
X11177325Y-10120650D01*
X11177325Y-10120650D02*
X11196373Y-10130174D01*
X11196373Y-10130174D02*
X11205896Y-10149222D01*
X11205896Y-10149222D02*
X11205896Y-10168270D01*
X11205896Y-10168270D02*
X11110658Y-10187317D01*
X11377325Y-10253984D02*
X11377325Y-10053984D01*
X11377325Y-10244460D02*
X11358277Y-10253984D01*
X11358277Y-10253984D02*
X11320182Y-10253984D01*
X11320182Y-10253984D02*
X11301134Y-10244460D01*
X11301134Y-10244460D02*
X11291611Y-10234936D01*
X11291611Y-10234936D02*
X11282087Y-10215889D01*
X11282087Y-10215889D02*
X11282087Y-10158746D01*
X11282087Y-10158746D02*
X11291611Y-10139698D01*
X11291611Y-10139698D02*
X11301134Y-10130174D01*
X11301134Y-10130174D02*
X11320182Y-10120650D01*
X11320182Y-10120650D02*
X11358277Y-10120650D01*
X11358277Y-10120650D02*
X11377325Y-10130174D01*
X11453515Y-10330174D02*
X11463039Y-10320650D01*
X11463039Y-10320650D02*
X11482087Y-10292079D01*
X11482087Y-10292079D02*
X11491611Y-10273031D01*
X11491611Y-10273031D02*
X11501134Y-10244460D01*
X11501134Y-10244460D02*
X11510658Y-10196841D01*
X11510658Y-10196841D02*
X11510658Y-10158746D01*
X11510658Y-10158746D02*
X11501134Y-10111127D01*
X11501134Y-10111127D02*
X11491611Y-10082555D01*
X11491611Y-10082555D02*
X11482087Y-10063508D01*
X11482087Y-10063508D02*
X11463039Y-10034936D01*
X11463039Y-10034936D02*
X11453515Y-10025412D01*
M02*
