M48
; DRILL file {KiCad 9.0.2} date 2025-05-25T16:27:38-0700
; FORMAT={-:-/ absolute / metric / decimal}
; #@! TF.CreationDate,2025-05-25T16:27:38-07:00
; #@! TF.GenerationSoftware,Kicad,Pcbnew,9.0.2
; #@! TF.FileFunction,Plated,1,2,PTH
FMAT,2
METRIC
; #@! TA.AperFunction,Plated,PTH,ComponentDrill
T1C0.750
; #@! TA.AperFunction,Plated,PTH,ComponentDrill
T2C0.800
%
G90
G05
T1
X64.0Y-83.55
X66.0Y-83.55
X75.0Y-83.55
X77.0Y-83.55
T2
X62.0Y-49.0
X62.0Y-51.54
X62.0Y-54.08
X62.0Y-56.62
X62.0Y-59.16
X62.0Y-61.7
X62.0Y-64.24
X62.0Y-66.78
X66.19Y-71.195
X66.19Y-78.815
X68.73Y-71.195
X68.73Y-78.815
X71.27Y-71.195
X71.27Y-78.815
X73.81Y-71.195
X73.81Y-78.815
X80.034Y-49.0
X80.034Y-51.54
X80.034Y-54.08
X80.034Y-56.62
X80.034Y-59.16
X80.034Y-61.7
X80.034Y-64.24
X80.034Y-66.78
M30
