%TF.GenerationSoftware,KiCad,Pcbnew,9.0.2*%
%TF.CreationDate,2025-05-25T16:27:06-07:00*%
%TF.ProjectId,PCB,5043422e-6b69-4636-9164-5f7063625858,rev?*%
%TF.SameCoordinates,Original*%
%TF.FileFunction,Legend,Bot*%
%TF.FilePolarity,Positive*%
%FSLAX46Y46*%
G04 Gerber Fmt 4.6, Leading zero omitted, Abs format (unit mm)*
G04 Created by KiCad (PCBNEW 9.0.2) date 2025-05-25 16:27:06*
%MOMM*%
%LPD*%
G01*
G04 APERTURE LIST*
G04 Aperture macros list*
%AMRoundRect*
0 Rectangle with rounded corners*
0 $1 Rounding radius*
0 $2 $3 $4 $5 $6 $7 $8 $9 X,Y pos of 4 corners*
0 Add a 4 corners polygon primitive as box body*
4,1,4,$2,$3,$4,$5,$6,$7,$8,$9,$2,$3,0*
0 Add four circle primitives for the rounded corners*
1,1,$1+$1,$2,$3*
1,1,$1+$1,$4,$5*
1,1,$1+$1,$6,$7*
1,1,$1+$1,$8,$9*
0 Add four rect primitives between the rounded corners*
20,1,$1+$1,$2,$3,$4,$5,0*
20,1,$1+$1,$4,$5,$6,$7,0*
20,1,$1+$1,$6,$7,$8,$9,0*
20,1,$1+$1,$8,$9,$2,$3,0*%
G04 Aperture macros list end*
%ADD10C,0.150000*%
%ADD11C,0.127000*%
%ADD12C,0.200000*%
%ADD13C,0.120000*%
%ADD14C,3.200000*%
%ADD15C,2.500000*%
%ADD16RoundRect,0.102000X0.654000X0.654000X-0.654000X0.654000X-0.654000X-0.654000X0.654000X-0.654000X0*%
%ADD17C,1.512000*%
%ADD18RoundRect,0.250000X-0.550000X0.550000X-0.550000X-0.550000X0.550000X-0.550000X0.550000X0.550000X0*%
%ADD19C,1.600000*%
%ADD20RoundRect,0.250000X0.350000X0.625000X-0.350000X0.625000X-0.350000X-0.625000X0.350000X-0.625000X0*%
%ADD21O,1.200000X1.750000*%
G04 APERTURE END LIST*
D10*
X71761904Y-56454819D02*
X71761904Y-57264342D01*
X71761904Y-57264342D02*
X71714285Y-57359580D01*
X71714285Y-57359580D02*
X71666666Y-57407200D01*
X71666666Y-57407200D02*
X71571428Y-57454819D01*
X71571428Y-57454819D02*
X71380952Y-57454819D01*
X71380952Y-57454819D02*
X71285714Y-57407200D01*
X71285714Y-57407200D02*
X71238095Y-57359580D01*
X71238095Y-57359580D02*
X71190476Y-57264342D01*
X71190476Y-57264342D02*
X71190476Y-56454819D01*
X70761904Y-56550057D02*
X70714285Y-56502438D01*
X70714285Y-56502438D02*
X70619047Y-56454819D01*
X70619047Y-56454819D02*
X70380952Y-56454819D01*
X70380952Y-56454819D02*
X70285714Y-56502438D01*
X70285714Y-56502438D02*
X70238095Y-56550057D01*
X70238095Y-56550057D02*
X70190476Y-56645295D01*
X70190476Y-56645295D02*
X70190476Y-56740533D01*
X70190476Y-56740533D02*
X70238095Y-56883390D01*
X70238095Y-56883390D02*
X70809523Y-57454819D01*
X70809523Y-57454819D02*
X70190476Y-57454819D01*
X63454819Y-74238095D02*
X64264342Y-74238095D01*
X64264342Y-74238095D02*
X64359580Y-74285714D01*
X64359580Y-74285714D02*
X64407200Y-74333333D01*
X64407200Y-74333333D02*
X64454819Y-74428571D01*
X64454819Y-74428571D02*
X64454819Y-74619047D01*
X64454819Y-74619047D02*
X64407200Y-74714285D01*
X64407200Y-74714285D02*
X64359580Y-74761904D01*
X64359580Y-74761904D02*
X64264342Y-74809523D01*
X64264342Y-74809523D02*
X63454819Y-74809523D01*
X64454819Y-75809523D02*
X64454819Y-75238095D01*
X64454819Y-75523809D02*
X63454819Y-75523809D01*
X63454819Y-75523809D02*
X63597676Y-75428571D01*
X63597676Y-75428571D02*
X63692914Y-75333333D01*
X63692914Y-75333333D02*
X63740533Y-75238095D01*
X77761904Y-81407200D02*
X77619047Y-81454819D01*
X77619047Y-81454819D02*
X77380952Y-81454819D01*
X77380952Y-81454819D02*
X77285714Y-81407200D01*
X77285714Y-81407200D02*
X77238095Y-81359580D01*
X77238095Y-81359580D02*
X77190476Y-81264342D01*
X77190476Y-81264342D02*
X77190476Y-81169104D01*
X77190476Y-81169104D02*
X77238095Y-81073866D01*
X77238095Y-81073866D02*
X77285714Y-81026247D01*
X77285714Y-81026247D02*
X77380952Y-80978628D01*
X77380952Y-80978628D02*
X77571428Y-80931009D01*
X77571428Y-80931009D02*
X77666666Y-80883390D01*
X77666666Y-80883390D02*
X77714285Y-80835771D01*
X77714285Y-80835771D02*
X77761904Y-80740533D01*
X77761904Y-80740533D02*
X77761904Y-80645295D01*
X77761904Y-80645295D02*
X77714285Y-80550057D01*
X77714285Y-80550057D02*
X77666666Y-80502438D01*
X77666666Y-80502438D02*
X77571428Y-80454819D01*
X77571428Y-80454819D02*
X77333333Y-80454819D01*
X77333333Y-80454819D02*
X77190476Y-80502438D01*
X76761904Y-81454819D02*
X76761904Y-80454819D01*
X76761904Y-80454819D02*
X76380952Y-80454819D01*
X76380952Y-80454819D02*
X76285714Y-80502438D01*
X76285714Y-80502438D02*
X76238095Y-80550057D01*
X76238095Y-80550057D02*
X76190476Y-80645295D01*
X76190476Y-80645295D02*
X76190476Y-80788152D01*
X76190476Y-80788152D02*
X76238095Y-80883390D01*
X76238095Y-80883390D02*
X76285714Y-80931009D01*
X76285714Y-80931009D02*
X76380952Y-80978628D01*
X76380952Y-80978628D02*
X76761904Y-80978628D01*
X75761904Y-81454819D02*
X75761904Y-80454819D01*
X75190476Y-81454819D02*
X75619047Y-80883390D01*
X75190476Y-80454819D02*
X75761904Y-81026247D01*
X74238095Y-81454819D02*
X74809523Y-81454819D01*
X74523809Y-81454819D02*
X74523809Y-80454819D01*
X74523809Y-80454819D02*
X74619047Y-80597676D01*
X74619047Y-80597676D02*
X74714285Y-80692914D01*
X74714285Y-80692914D02*
X74809523Y-80740533D01*
X66214285Y-80931009D02*
X66071428Y-80978628D01*
X66071428Y-80978628D02*
X66023809Y-81026247D01*
X66023809Y-81026247D02*
X65976190Y-81121485D01*
X65976190Y-81121485D02*
X65976190Y-81264342D01*
X65976190Y-81264342D02*
X66023809Y-81359580D01*
X66023809Y-81359580D02*
X66071428Y-81407200D01*
X66071428Y-81407200D02*
X66166666Y-81454819D01*
X66166666Y-81454819D02*
X66547618Y-81454819D01*
X66547618Y-81454819D02*
X66547618Y-80454819D01*
X66547618Y-80454819D02*
X66214285Y-80454819D01*
X66214285Y-80454819D02*
X66119047Y-80502438D01*
X66119047Y-80502438D02*
X66071428Y-80550057D01*
X66071428Y-80550057D02*
X66023809Y-80645295D01*
X66023809Y-80645295D02*
X66023809Y-80740533D01*
X66023809Y-80740533D02*
X66071428Y-80835771D01*
X66071428Y-80835771D02*
X66119047Y-80883390D01*
X66119047Y-80883390D02*
X66214285Y-80931009D01*
X66214285Y-80931009D02*
X66547618Y-80931009D01*
X65595237Y-81169104D02*
X65119047Y-81169104D01*
X65690475Y-81454819D02*
X65357142Y-80454819D01*
X65357142Y-80454819D02*
X65023809Y-81454819D01*
X64833332Y-80454819D02*
X64261904Y-80454819D01*
X64547618Y-81454819D02*
X64547618Y-80454819D01*
X63404761Y-81454819D02*
X63976189Y-81454819D01*
X63690475Y-81454819D02*
X63690475Y-80454819D01*
X63690475Y-80454819D02*
X63785713Y-80597676D01*
X63785713Y-80597676D02*
X63880951Y-80692914D01*
X63880951Y-80692914D02*
X63976189Y-80740533D01*
D11*
%TO.C,U2*%
X60857000Y-47730000D02*
X60857000Y-68050000D01*
X60857000Y-68050000D02*
X81177000Y-68050000D01*
X81177000Y-47730000D02*
X60857000Y-47730000D01*
X81177000Y-68050000D02*
X81177000Y-47730000D01*
D12*
X81917000Y-49000000D02*
G75*
G02*
X81717000Y-49000000I-100000J0D01*
G01*
X81717000Y-49000000D02*
G75*
G02*
X81917000Y-49000000I100000J0D01*
G01*
D13*
%TO.C,U1*%
X64860000Y-72355000D02*
X75140000Y-72355000D01*
X64860000Y-74005000D02*
X64860000Y-72355000D01*
X64860000Y-77655000D02*
X64860000Y-76005000D01*
X75140000Y-72355000D02*
X75140000Y-77655000D01*
X75140000Y-77655000D02*
X64860000Y-77655000D01*
X64860000Y-74005000D02*
G75*
G02*
X64860000Y-76005000I0J-1000000D01*
G01*
%TO.C,SPK1*%
X72940000Y-82090000D02*
X73860000Y-82090000D01*
X72940000Y-83690000D02*
X73860000Y-83690000D01*
X72940000Y-89910000D02*
X72940000Y-82090000D01*
X73700000Y-86050000D02*
X73700000Y-87650000D01*
X73700000Y-87650000D02*
X74700000Y-87650000D01*
X73860000Y-82090000D02*
X73860000Y-83690000D01*
X73860000Y-83690000D02*
X74140000Y-83690000D01*
X74700000Y-86050000D02*
X73700000Y-86050000D01*
X74700000Y-87650000D02*
X74700000Y-86050000D01*
X75500000Y-85550000D02*
X75500000Y-89910000D01*
X76500000Y-85550000D02*
X75500000Y-85550000D01*
X76500000Y-89910000D02*
X76500000Y-85550000D01*
X77300000Y-86050000D02*
X78300000Y-86050000D01*
X77300000Y-87650000D02*
X77300000Y-86050000D01*
X77300000Y-87650000D02*
X77300000Y-89910000D01*
X77800000Y-87650000D02*
X77800000Y-89910000D01*
X77860000Y-83690000D02*
X77860000Y-82475000D01*
X77860000Y-83690000D02*
X78140000Y-83690000D01*
X78140000Y-82090000D02*
X79060000Y-82090000D01*
X78140000Y-83690000D02*
X78140000Y-82090000D01*
X78300000Y-86050000D02*
X78300000Y-87650000D01*
X78300000Y-87650000D02*
X77300000Y-87650000D01*
X79060000Y-82090000D02*
X79060000Y-89910000D01*
X79060000Y-83690000D02*
X78140000Y-83690000D01*
X79060000Y-89910000D02*
X72940000Y-89910000D01*
%TO.C,BAT1*%
X61940000Y-82090000D02*
X62860000Y-82090000D01*
X61940000Y-83690000D02*
X62860000Y-83690000D01*
X61940000Y-89910000D02*
X61940000Y-82090000D01*
X62700000Y-86050000D02*
X62700000Y-87650000D01*
X62700000Y-87650000D02*
X63700000Y-87650000D01*
X62860000Y-82090000D02*
X62860000Y-83690000D01*
X62860000Y-83690000D02*
X63140000Y-83690000D01*
X63700000Y-86050000D02*
X62700000Y-86050000D01*
X63700000Y-87650000D02*
X63700000Y-86050000D01*
X64500000Y-85550000D02*
X64500000Y-89910000D01*
X65500000Y-85550000D02*
X64500000Y-85550000D01*
X65500000Y-89910000D02*
X65500000Y-85550000D01*
X66300000Y-86050000D02*
X67300000Y-86050000D01*
X66300000Y-87650000D02*
X66300000Y-86050000D01*
X66300000Y-87650000D02*
X66300000Y-89910000D01*
X66800000Y-87650000D02*
X66800000Y-89910000D01*
X66860000Y-83690000D02*
X66860000Y-82475000D01*
X66860000Y-83690000D02*
X67140000Y-83690000D01*
X67140000Y-82090000D02*
X68060000Y-82090000D01*
X67140000Y-83690000D02*
X67140000Y-82090000D01*
X67300000Y-86050000D02*
X67300000Y-87650000D01*
X67300000Y-87650000D02*
X66300000Y-87650000D01*
X68060000Y-82090000D02*
X68060000Y-89910000D01*
X68060000Y-83690000D02*
X67140000Y-83690000D01*
X68060000Y-89910000D02*
X61940000Y-89910000D01*
%TD*%
%LPC*%
D14*
%TO.C,H1*%
X51600000Y-60600000D03*
%TD*%
D15*
%TO.C,H3*%
X86750000Y-60550000D03*
%TD*%
%TO.C,H4*%
X57250000Y-88750000D03*
%TD*%
D14*
%TO.C,H2*%
X88400000Y-82900000D03*
%TD*%
D16*
%TO.C,U2*%
X80034000Y-49000000D03*
D17*
X80034000Y-51540000D03*
X80034000Y-54080000D03*
X80034000Y-56620000D03*
X80034000Y-59160000D03*
X80034000Y-61700000D03*
X80034000Y-64240000D03*
X80034000Y-66780000D03*
X62000000Y-66780000D03*
X62000000Y-64240000D03*
X62000000Y-61700000D03*
X62000000Y-59160000D03*
X62000000Y-56620000D03*
X62000000Y-54080000D03*
X62000000Y-51540000D03*
X62000000Y-49000000D03*
%TD*%
D18*
%TO.C,U1*%
X66190000Y-71195000D03*
D19*
X68730000Y-71195000D03*
X71270000Y-71195000D03*
X73810000Y-71195000D03*
X73810000Y-78815000D03*
X71270000Y-78815000D03*
X68730000Y-78815000D03*
X66190000Y-78815000D03*
%TD*%
D20*
%TO.C,SPK1*%
X77000000Y-83550000D03*
D21*
X75000000Y-83550000D03*
%TD*%
D20*
%TO.C,BAT1*%
X66000000Y-83550000D03*
D21*
X64000000Y-83550000D03*
%TD*%
%LPD*%
M02*
