%TF.GenerationSoftware,KiCad,Pcbnew,9.0.2*%
%TF.CreationDate,2025-05-25T16:27:06-07:00*%
%TF.ProjectId,PCB,5043422e-6b69-4636-9164-5f7063625858,rev?*%
%TF.SameCoordinates,Original*%
%TF.FileFunction,Copper,L1,Top*%
%TF.FilePolarity,Positive*%
%FSLAX46Y46*%
G04 Gerber Fmt 4.6, Leading zero omitted, Abs format (unit mm)*
G04 Created by KiCad (PCBNEW 9.0.2) date 2025-05-25 16:27:06*
%MOMM*%
%LPD*%
G01*
G04 APERTURE LIST*
G04 Aperture macros list*
%AMRoundRect*
0 Rectangle with rounded corners*
0 $1 Rounding radius*
0 $2 $3 $4 $5 $6 $7 $8 $9 X,Y pos of 4 corners*
0 Add a 4 corners polygon primitive as box body*
4,1,4,$2,$3,$4,$5,$6,$7,$8,$9,$2,$3,0*
0 Add four circle primitives for the rounded corners*
1,1,$1+$1,$2,$3*
1,1,$1+$1,$4,$5*
1,1,$1+$1,$6,$7*
1,1,$1+$1,$8,$9*
0 Add four rect primitives between the rounded corners*
20,1,$1+$1,$2,$3,$4,$5,0*
20,1,$1+$1,$4,$5,$6,$7,0*
20,1,$1+$1,$6,$7,$8,$9,0*
20,1,$1+$1,$8,$9,$2,$3,0*%
G04 Aperture macros list end*
%TA.AperFunction,EtchedComponent*%
%ADD10C,0.500000*%
%TD*%
%TA.AperFunction,SMDPad,CuDef*%
%ADD11RoundRect,0.190500X-2.309500X-0.444500X2.309500X-0.444500X2.309500X0.444500X-2.309500X0.444500X0*%
%TD*%
%TA.AperFunction,SMDPad,CuDef*%
%ADD12RoundRect,0.250000X0.450000X-0.350000X0.450000X0.350000X-0.450000X0.350000X-0.450000X-0.350000X0*%
%TD*%
%TA.AperFunction,SMDPad,CuDef*%
%ADD13RoundRect,0.237500X-0.237500X0.300000X-0.237500X-0.300000X0.237500X-0.300000X0.237500X0.300000X0*%
%TD*%
%TA.AperFunction,ComponentPad*%
%ADD14R,1.308000X1.308000*%
%TD*%
%TA.AperFunction,ComponentPad*%
%ADD15C,1.308000*%
%TD*%
%TA.AperFunction,ComponentPad*%
%ADD16RoundRect,0.250000X-0.550000X0.550000X-0.550000X-0.550000X0.550000X-0.550000X0.550000X0.550000X0*%
%TD*%
%TA.AperFunction,ComponentPad*%
%ADD17C,1.600000*%
%TD*%
%TA.AperFunction,ComponentPad*%
%ADD18RoundRect,0.250000X0.350000X0.625000X-0.350000X0.625000X-0.350000X-0.625000X0.350000X-0.625000X0*%
%TD*%
%TA.AperFunction,ComponentPad*%
%ADD19O,1.200000X1.750000*%
%TD*%
%TA.AperFunction,Conductor*%
%ADD20C,0.200000*%
%TD*%
G04 APERTURE END LIST*
D10*
%TO.C,SW1*%
X53000000Y-77750000D02*
X53000000Y-71750000D01*
X54000000Y-75250000D02*
X54000000Y-68970934D01*
X55000000Y-77115000D02*
X55000000Y-71750000D01*
X56000000Y-75250000D02*
X56000000Y-69000000D01*
X57000000Y-77750000D02*
X57000000Y-71750000D01*
%TO.C,SW2*%
X82000000Y-77750000D02*
X82000000Y-71750000D01*
X83000000Y-75250000D02*
X83000000Y-68970934D01*
X84000000Y-77115000D02*
X84000000Y-71750000D01*
X85000000Y-75250000D02*
X85000000Y-69000000D01*
X86000000Y-77750000D02*
X86000000Y-71750000D01*
%TD*%
D11*
%TO.P,SW1,1,1*%
%TO.N,Net-(U1-XTAL1{slash}PB3)*%
X55000000Y-69250000D03*
%TO.P,SW1,2,2*%
%TO.N,/VDD*%
X55000000Y-77750000D03*
%TD*%
D12*
%TO.P,R2,1*%
%TO.N,Net-(U1-AREF{slash}PB0)*%
X78000000Y-73000000D03*
%TO.P,R2,2*%
%TO.N,Net-(U2-TX)*%
X78000000Y-71000000D03*
%TD*%
D11*
%TO.P,SW2,1,1*%
%TO.N,Net-(U1-XTAL2{slash}PB4)*%
X84000000Y-69250000D03*
%TO.P,SW2,2,2*%
%TO.N,/VDD*%
X84000000Y-77750000D03*
%TD*%
D13*
%TO.P,C1,1*%
%TO.N,/GND*%
X58000000Y-64000000D03*
%TO.P,C1,2*%
%TO.N,/VDD*%
X58000000Y-65725000D03*
%TD*%
D12*
%TO.P,R1,1*%
%TO.N,/VDD*%
X63000000Y-73000000D03*
%TO.P,R1,2*%
%TO.N,Net-(U1-~{RESET}{slash}PB5)*%
X63000000Y-71000000D03*
%TD*%
D14*
%TO.P,U2,1,VCC*%
%TO.N,/VDD*%
X80034000Y-49000000D03*
D15*
%TO.P,U2,2,RX*%
%TO.N,Net-(U1-PB1)*%
X80034000Y-51540000D03*
%TO.P,U2,3,TX*%
%TO.N,Net-(U2-TX)*%
X80034000Y-54080000D03*
%TO.P,U2,4,DAC_R*%
%TO.N,unconnected-(U2-DAC_R-Pad4)*%
X80034000Y-56620000D03*
%TO.P,U2,5,DAC_L*%
%TO.N,unconnected-(U2-DAC_L-Pad5)*%
X80034000Y-59160000D03*
%TO.P,U2,6,SPK1*%
%TO.N,Net-(SPK1-Pin_1)*%
X80034000Y-61700000D03*
%TO.P,U2,7,GND*%
%TO.N,/GND*%
X80034000Y-64240000D03*
%TO.P,U2,8,SPK2*%
%TO.N,Net-(SPK1-Pin_2)*%
X80034000Y-66780000D03*
%TO.P,U2,9,IO1*%
%TO.N,unconnected-(U2-IO1-Pad9)*%
X62000000Y-66780000D03*
%TO.P,U2,10,GND__1*%
%TO.N,/GND*%
X62000000Y-64240000D03*
%TO.P,U2,11,IO2*%
%TO.N,unconnected-(U2-IO2-Pad11)*%
X62000000Y-61700000D03*
%TO.P,U2,12,ADKEY1*%
%TO.N,unconnected-(U2-ADKEY1-Pad12)*%
X62000000Y-59160000D03*
%TO.P,U2,13,ADKEY2*%
%TO.N,unconnected-(U2-ADKEY2-Pad13)*%
X62000000Y-56620000D03*
%TO.P,U2,14,USB+*%
%TO.N,unconnected-(U2-USB+-Pad14)*%
X62000000Y-54080000D03*
%TO.P,U2,15,USB-*%
%TO.N,unconnected-(U2-USB--Pad15)*%
X62000000Y-51540000D03*
%TO.P,U2,16,BUSY*%
%TO.N,unconnected-(U2-BUSY-Pad16)*%
X62000000Y-49000000D03*
%TD*%
D16*
%TO.P,U1,1,~{RESET}/PB5*%
%TO.N,Net-(U1-~{RESET}{slash}PB5)*%
X66190000Y-71195000D03*
D17*
%TO.P,U1,2,XTAL1/PB3*%
%TO.N,Net-(U1-XTAL1{slash}PB3)*%
X68730000Y-71195000D03*
%TO.P,U1,3,XTAL2/PB4*%
%TO.N,Net-(U1-XTAL2{slash}PB4)*%
X71270000Y-71195000D03*
%TO.P,U1,4,GND*%
%TO.N,/GND*%
X73810000Y-71195000D03*
%TO.P,U1,5,AREF/PB0*%
%TO.N,Net-(U1-AREF{slash}PB0)*%
X73810000Y-78815000D03*
%TO.P,U1,6,PB1*%
%TO.N,Net-(U1-PB1)*%
X71270000Y-78815000D03*
%TO.P,U1,7,PB2*%
%TO.N,unconnected-(U1-PB2-Pad7)*%
X68730000Y-78815000D03*
%TO.P,U1,8,VCC*%
%TO.N,/VDD*%
X66190000Y-78815000D03*
%TD*%
D18*
%TO.P,SPK1,1,Pin_1*%
%TO.N,Net-(SPK1-Pin_1)*%
X77000000Y-83550000D03*
D19*
%TO.P,SPK1,2,Pin_2*%
%TO.N,Net-(SPK1-Pin_2)*%
X75000000Y-83550000D03*
%TD*%
D18*
%TO.P,BAT1,1,Pin_1*%
%TO.N,/VDD*%
X66000000Y-83550000D03*
D19*
%TO.P,BAT1,2,Pin_2*%
%TO.N,/GND*%
X64000000Y-83550000D03*
%TD*%
D20*
%TO.N,/GND*%
X61760000Y-64000000D02*
X62000000Y-64240000D01*
X73810000Y-71195000D02*
X73810000Y-64550000D01*
X62000000Y-64240000D02*
X73500000Y-64240000D01*
X73500000Y-64240000D02*
X80034000Y-64240000D01*
X58000000Y-64000000D02*
X61760000Y-64000000D01*
X73810000Y-64550000D02*
X73500000Y-64240000D01*
%TO.N,/VDD*%
X70829000Y-58205000D02*
X80034000Y-49000000D01*
X57224000Y-64949000D02*
X57224000Y-62585426D01*
X58000000Y-65725000D02*
X61000000Y-68725000D01*
X66190000Y-78815000D02*
X67875000Y-80500000D01*
X67875000Y-80500000D02*
X81250000Y-80500000D01*
X61604426Y-58205000D02*
X70829000Y-58205000D01*
X63685000Y-78815000D02*
X66190000Y-78815000D01*
X81250000Y-80500000D02*
X84000000Y-77750000D01*
X55000000Y-79500000D02*
X63000000Y-79500000D01*
X57224000Y-62585426D02*
X61604426Y-58205000D01*
X63000000Y-79500000D02*
X63685000Y-78815000D01*
X55000000Y-77750000D02*
X55000000Y-79500000D01*
X61000000Y-71000000D02*
X63000000Y-73000000D01*
X61000000Y-68725000D02*
X61000000Y-71000000D01*
X58000000Y-65725000D02*
X57224000Y-64949000D01*
%TO.N,Net-(U1-~{RESET}{slash}PB5)*%
X63695000Y-71195000D02*
X66190000Y-71195000D01*
X63500000Y-71000000D02*
X63695000Y-71195000D01*
X63000000Y-71000000D02*
X63500000Y-71000000D01*
%TO.N,Net-(U1-AREF{slash}PB0)*%
X78000000Y-74625000D02*
X73810000Y-78815000D01*
X78000000Y-73000000D02*
X78000000Y-74625000D01*
%TO.N,Net-(U1-XTAL1{slash}PB3)*%
X57000000Y-69220768D02*
X57000000Y-70000000D01*
X56228232Y-68449000D02*
X57000000Y-69220768D01*
X66024000Y-73901000D02*
X68730000Y-71195000D01*
X55000000Y-69220768D02*
X55771768Y-68449000D01*
X60901000Y-73901000D02*
X66024000Y-73901000D01*
X57000000Y-70000000D02*
X60901000Y-73901000D01*
X55771768Y-68449000D02*
X56228232Y-68449000D01*
X55000000Y-69250000D02*
X55000000Y-69220768D01*
%TO.N,Net-(U1-XTAL2{slash}PB4)*%
X79336844Y-75899000D02*
X79336844Y-71854858D01*
X73353950Y-79916000D02*
X75319844Y-79916000D01*
X71270000Y-71195000D02*
X72371000Y-72296000D01*
X72371000Y-78933050D02*
X73353950Y-79916000D01*
X83804934Y-68419934D02*
X84000000Y-68615000D01*
X72371000Y-72296000D02*
X72371000Y-78933050D01*
X79336844Y-71854858D02*
X82771768Y-68419934D01*
X75319844Y-79916000D02*
X79336844Y-75899000D01*
X82771768Y-68419934D02*
X83804934Y-68419934D01*
X84000000Y-68615000D02*
X84000000Y-69250000D01*
%TO.N,Net-(U2-TX)*%
X78000000Y-71000000D02*
X82000000Y-67000000D01*
X82000000Y-67000000D02*
X82000000Y-56000000D01*
X81954000Y-56000000D02*
X80034000Y-54080000D01*
X82000000Y-56000000D02*
X81954000Y-56000000D01*
%TD*%
M02*
